<?xml version="1.0" encoding="UTF-8"?>
<svg id="Layer_2" data-name="Layer 2" xmlns="http://www.w3.org/2000/svg" viewBox="0 0 236.31 276.68">
  <defs>
    <style>
      .cls-1 {
        fill: #010101;
      }
    </style>
  </defs>
  <g id="Layer_1-2" data-name="Layer 1">
    <path class="cls-1" d="M85.34,94.5c3.54-3.57,6.67-6.5,6.94-6.5s-2.4,2.93-5.94,6.5-6.67,6.5-6.94,6.5,2.4-2.93,5.94-6.5Z"/>
    <path class="cls-1" d="M33.84,92c3.82-3.85,7.17-7,7.45-7s-2.63,3.15-6.45,7-7.17,7-7.45,7,2.63-3.15,6.45-7Z"/>
    <path class="cls-1" d="M40.34,91.5c2.99-3.02,5.66-5.5,5.93-5.5s-1.94,2.48-4.93,5.5-5.66,5.5-5.93,5.5,1.94-2.48,4.93-5.5Z"/>
    <path class="cls-1" d="M93.84,92c2.15-2.2,4.13-4,4.41-4s-1.26,1.8-3.41,4c-2.15,2.2-4.13,4-4.41,4s1.26-1.8,3.41-4Z"/>
    <path class="cls-1" d="M137.34,93.5c1.29-1.38,2.57-2.5,2.85-2.5s-.56,1.12-1.85,2.5-2.57,2.5-2.85,2.5.56-1.12,1.85-2.5Z"/>
    <path class="cls-1" d="M46.84,90c2.71-2.75,5.15-5,5.42-5s-1.72,2.25-4.42,5c-2.71,2.75-5.15,5-5.42,5s1.72-2.25,4.42-5Z"/>
    <path class="cls-1" d="M83.34,91.5c1.87-1.93,3.62-3.5,3.89-3.5s-1.03,1.57-2.89,3.5-3.62,3.5-3.89,3.5,1.03-1.57,2.89-3.5Z"/>
    <path class="cls-1" d="M100.29,90.75c2.45-2.61,4.59-4.75,4.75-4.75.75,0-.04.9-4.46,5.04l-4.75,4.46,4.46-4.75Z"/>
    <path class="cls-1" d="M166.34,87.5c2.99-3.03,5.66-5.5,5.93-5.5s-1.94,2.47-4.93,5.5c-2.99,3.02-5.66,5.5-5.93,5.5s1.94-2.48,4.93-5.5Z"/>
    <path class="cls-1" d="M128.34,91.69c0-.17,1.46-1.63,3.25-3.25l3.25-2.94-2.94,3.25c-2.74,3.03-3.56,3.71-3.56,2.94Z"/>
    <path class="cls-1" d="M54.34,88.5c1.29-1.38,2.57-2.5,2.85-2.5s-.56,1.12-1.85,2.5-2.57,2.5-2.85,2.5.56-1.12,1.85-2.5Z"/>
    <path class="cls-1" d="M108.84,88c1-1.1,2.03-2,2.31-2s-.31.9-1.31,2-2.03,2-2.31,2,.31-.9,1.31-2Z"/>
    <path class="cls-1" d="M136.84,88c1-1.1,2.03-2,2.31-2s-.31.9-1.31,2-2.03,2-2.31,2,.31-.9,1.31-2Z"/>
    <path class="cls-1" d="M143.34,87.5c1.29-1.38,2.57-2.5,2.85-2.5s-.56,1.12-1.85,2.5-2.57,2.5-2.85,2.5.56-1.12,1.85-2.5Z"/>
    <path class="cls-1" d="M187.34,85.5c1.87-1.93,3.62-3.5,3.89-3.5s-1.03,1.57-2.89,3.5-3.62,3.5-3.89,3.5,1.03-1.57,2.89-3.5Z"/>
    <path class="cls-1" d="M191.34,87.69c0-.17,1.46-1.63,3.25-3.25l3.25-2.94-2.94,3.25c-2.74,3.03-3.56,3.71-3.56,2.94Z"/>
    <path class="cls-1" d="M121.09,85.02c-2.08-1.64-4.06-2.02-10.48-2.02-4.51,0-9.86.66-12.45,1.54-4.08,1.39-4.98,1.39-8.93.01-3.37-1.17-9.41-1.56-25.89-1.64-19.17-.1-39.65-1.37-28.75-1.77,2.89-.11,3.75-.55,3.75-1.94,0-2.26,1.88-4.2,4.08-4.2.92,0,2.26-.71,2.98-1.57.76-.91,2.15-1.35,3.34-1.04,2.23.58,5.61-1.88,5.61-4.09s4.65-6.3,7.02-6.3c1.16,0,3.59-1.12,5.39-2.5,2.11-1.61,4.58-2.5,6.91-2.5h3.64l-.54-4.25c-.73-5.76,2.06-10.22,7.38-11.81,5.15-1.54,10.82.92,12.75,5.56.99,2.36,2.32,3.45,5.33,4.35,4.05,1.21,7.14,4.46,9.07,9.54.89,2.34,1.24,2.5,2.99,1.41,1.5-.94,2.96-.97,6.05-.15,3.6.96,4.19.87,5.07-.77,1.46-2.72,6.26-4.88,10.85-4.88,3.06,0,4.85.73,7.55,3.1,1.94,1.71,3.53,3.71,3.53,4.44s1,2.04,2.23,2.9c1.22.86,2.91,3,3.75,4.77.92,1.93,2.52,3.44,4.02,3.79,1.79.42,2.59,1.35,2.82,3.29.28,2.37.78,2.73,4,2.86,7,.28-7.87,1.52-20.79,1.74-8.71.15-12.93.61-14,1.54-2.86,2.5-5.6,2.7-8.28.59Z"/>
    <path class="cls-1" d="M200.34,83.5c1.87-1.93,3.62-3.5,3.89-3.5s-1.03,1.57-2.89,3.5-3.62,3.5-3.89,3.5,1.03-1.57,2.89-3.5Z"/>
    <path class="cls-1" d="M205.84,84c1-1.1,2.03-2,2.31-2s-.31.9-1.31,2-2.03,2-2.31,2,.31-.9,1.31-2Z"/>
    <path class="cls-1" d="M19.84,78c3.27-3.3,6.16-6,6.44-6s-2.17,2.7-5.44,6-6.16,6-6.44,6,2.17-2.7,5.44-6Z"/>
    <path class="cls-1" d="M192.34,78.98c-.86-.57-7.21-.88-14.83-.73l-13.33.26-2.01-2.75c-1.1-1.51-2.86-2.75-3.91-2.75-1.22,0-2.42-1.23-3.33-3.42-.79-1.88-2.37-3.92-3.51-4.54-4.23-2.26-.89-8.05,4.64-8.05,1.94,0,2.28-.52,2.28-3.57,0-4.89,1.39-7.08,5.34-8.38,4.76-1.57,7.93-.15,10.54,4.72.66,1.23,1.82,2.23,2.58,2.23,2.22,0,7.27,4.77,7.96,7.52.55,2.21.9,2.38,2.74,1.4,1.52-.81,2.76-.83,4.46-.05,1.98.9,2.74.69,4.79-1.36,3.18-3.18,6.91-4.04,10.71-2.47,2.74,1.13,4.91,3.67,9.89,11.58.83,1.31,2.04,2.38,2.69,2.38.66,0,1.78.82,2.5,1.83s2.21,2.34,3.31,2.97c1.57.9-.9,1.15-11.63,1.17-10.87.02-13.88.33-14.87,1.53-1.42,1.71-4.79,1.94-7,.48h0Z"/>
    <path class="cls-1" d="M26.84,76c1-1.1,2.03-2,2.31-2s-.31.9-1.31,2-2.03,2-2.31,2,.31-.9,1.31-2Z"/>
    <path class="cls-1" d="M21.34,70.5c2.99-3.03,5.66-5.5,5.93-5.5s-1.94,2.47-4.93,5.5-5.66,5.5-5.93,5.5,1.94-2.47,4.93-5.5Z"/>
    <path class="cls-1" d="M35.84,73c1-1.1,2.03-2,2.31-2s-.31.9-1.31,2-2.03,2-2.31,2,.31-.9,1.31-2Z"/>
    <path class="cls-1" d="M33.34,69.5c1.87-1.93,3.62-3.5,3.89-3.5s-1.03,1.57-2.89,3.5-3.62,3.5-3.89,3.5,1.03-1.57,2.89-3.5Z"/>
    <path class="cls-1" d="M29.34,68.5c1.29-1.38,2.57-2.5,2.85-2.5s-.56,1.12-1.85,2.5-2.57,2.5-2.85,2.5.56-1.12,1.85-2.5Z"/>
    <path class="cls-1" d="M224.34,65.62c0-.21.79-1,1.75-1.75,1.59-1.24,1.62-1.21.38.38-1.31,1.67-2.13,2.2-2.13,1.37Z"/>
    <path class="cls-1" d="M3.34,64.62c0-.21.79-1,1.75-1.75,1.59-1.24,1.62-1.21.38.38-1.31,1.67-2.13,2.2-2.13,1.37Z"/>
    <path class="cls-1" d="M32.35,63.22c-6.32-.16-11.92-.72-12.45-1.25-.62-.62-.36-.97.73-.97s1.7-.79,1.7-2.09.8-2.3,2-2.62c1.1-.29,2-1.08,2-1.75s.9-2.04,2-3.04c1.15-1.04,2-3.08,2-4.79s.87-4.38,1.93-6.1c5.76-9.3,19.38-8.93,24.57.67,1.1,2.04,2.48,3.7,3.08,3.71.59,0,2.15,1.14,3.46,2.54s3.08,2.37,3.92,2.18c1.84-.43,7.04,1.96,7.04,3.24,0,.49-1.33,1.19-2.95,1.54-1.62.36-3.99,1.46-5.25,2.44s-3.42,2.13-4.8,2.53c-1.38.41-3.62,1.48-5,2.39-2.63,1.73-4.6,1.84-23.98,1.36Z"/>
    <path class="cls-1" d="M17.84,56c3.82-3.85,7.17-7,7.45-7s-2.63,3.15-6.45,7-7.17,7-7.45,7,2.63-3.15,6.45-7Z"/>
    <path class="cls-1" d="M225.84,53c5.48-5.5,10.19-10,10.46-10s-3.98,4.5-9.46,10c-5.48,5.5-10.19,10-10.46,10s3.98-4.5,9.46-10Z"/>
    <path class="cls-1" d="M226.84,57c3.27-3.3,6.16-6,6.44-6s-2.17,2.7-5.44,6c-3.27,3.3-6.16,6-6.44,6s2.17-2.7,5.44-6Z"/>
    <path class="cls-1" d="M230.34,59.5c1.29-1.38,2.57-2.5,2.85-2.5s-.56,1.12-1.85,2.5-2.57,2.5-2.85,2.5.56-1.12,1.85-2.5Z"/>
    <path class="cls-1" d="M114.34,56.05c-1.38-1.59-5.17-4.3-8.44-6.02-3.39-1.78-6.92-4.57-8.23-6.49-5.59-8.22-19.04-6.51-22.43,2.85-1.14,3.16-1.33,3.27-3.73,2.02-1.39-.72-2.92-1.07-3.39-.78-.98.61-3.78-1.43-3.78-2.76,0-.48.9-.88,2-.88,1.43,0,2-.67,2-2.35,0-2.66,2.83-5.65,5.33-5.65,1.25,0,1.67-.9,1.67-3.58,0-4.74,4.48-9.42,9-9.42,4.26,0,9,4.7,9,8.92,0,2.84.27,3.08,3.42,3.08,4.75,0,9.4,4.07,10.18,8.9.54,3.4.84,3.69,3.38,3.31,1.71-.25,3.2-1.32,3.87-2.78,2.19-4.81,10.58-4.4,12.47.61,1.19,3.14,2.68,3.95,2.68,1.45,0-2.12,3.36-1.86,5.43.43,1.98,2.19,1.78,5.01-.43,6.1-5.65,2.77-9.58,3.98-12.95,3.98-2.14,0-4.03.44-4.22.97s-1.46-.33-2.83-1.92Z"/>
    <path class="cls-1" d="M145.24,57.38c-.77-.93-2.93-2.33-4.81-3.11l-3.41-1.42,2.91-1.92c3.77-2.49,7.49-2.44,10.77.14,3.36,2.65,3.33,4.26-.12,5.98-1.51.76-3.02,1.52-3.35,1.69-.33.17-1.23-.44-2-1.37Z"/>
    <path class="cls-1" d="M185.04,56.07c-1.69-2.85-1.67-3,.68-5.73,3.22-3.74,9.31-3.93,13.06-.4,1.41,1.32,2.54,2.89,2.51,3.48-.08,2-7.02,5.58-10.81,5.58-3.05,0-4.03-.53-5.44-2.93Z"/>
    <path class="cls-1" d="M216.34,56.5c1.29-1.38,2.57-2.5,2.85-2.5s-.56,1.12-1.85,2.5c-1.29,1.38-2.57,2.5-2.85,2.5s.56-1.12,1.85-2.5Z"/>
    <path class="cls-1" d="M10.34,57.62c0-.21.79-1,1.75-1.75,1.59-1.24,1.62-1.21.38.38-1.31,1.67-2.13,2.2-2.13,1.37Z"/>
    <path class="cls-1" d="M153.84,52.15c-2.8-3.71-3.08-10.83-.45-11.67,1.07-.34,2.44-1.53,3.03-2.64,1.42-2.65,6.71-4.8,10.19-4.14,3.52.67,6.73,4.71,6.73,8.46,0,2.56-.23,2.78-1.93,1.87-1.06-.57-3.69-1.04-5.83-1.04-4.7,0-8.25,3.25-9.14,8.38l-.6,3.42-2-2.65Z"/>
    <path class="cls-1" d="M202.93,52.16c-.35-.56-.14-1.32.45-1.69,1.54-.95,2.53.35,1.25,1.63-.72.72-1.28.74-1.7.05Z"/>
    <path class="cls-1" d="M225.34,47.5c2.99-3.03,5.66-5.5,5.93-5.5s-1.94,2.47-4.93,5.5-5.66,5.5-5.93,5.5,1.94-2.47,4.93-5.5Z"/>
    <path class="cls-1" d="M178.09,50.43c-3.45-1.87-3.6-3.82-.25-3.18,1.38.26,2.5.14,2.5-.27,0-1.12,3.61-1.84,4.97-1,.85.52.48,1.5-1.25,3.38-2.83,3.06-2.43,2.99-5.97,1.07Z"/>
    <path class="cls-1" d="M18.34,49.62c0-.21.79-1,1.75-1.75,1.59-1.24,1.62-1.21.38.38-1.31,1.67-2.13,2.2-2.13,1.37Z"/>
    <path class="cls-1" d="M141.34,44.5c1.87-1.93,3.62-3.5,3.89-3.5s-1.03,1.57-2.89,3.5-3.62,3.5-3.89,3.5,1.03-1.57,2.89-3.5Z"/>
    <path class="cls-1" d="M209.34,44.5c1.87-1.93,3.62-3.5,3.89-3.5s-1.03,1.57-2.89,3.5-3.62,3.5-3.89,3.5,1.03-1.57,2.89-3.5Z"/>
    <path class="cls-1" d="M146.34,44.5c1.29-1.38,2.57-2.5,2.85-2.5s-.56,1.12-1.85,2.5-2.57,2.5-2.85,2.5.56-1.12,1.85-2.5Z"/>
    <path class="cls-1" d="M23.84,44c1-1.1,2.03-2,2.31-2s-.31.9-1.31,2-2.03,2-2.31,2,.31-.9,1.31-2Z"/>
    <path class="cls-1" d="M205.34,42.5c1.87-1.93,3.62-3.5,3.89-3.5s-1.03,1.57-2.89,3.5-3.62,3.5-3.89,3.5,1.03-1.57,2.89-3.5Z"/>
    <path class="cls-1" d="M179.29,40.75c4.14-4.42,5.04-5.21,5.04-4.46,0,.16-2.14,2.3-4.75,4.75l-4.75,4.46,4.46-4.75Z"/>
    <path class="cls-1" d="M136.34,43.69c0-.17,1.46-1.63,3.25-3.25l3.25-2.94-2.94,3.25c-2.74,3.03-3.56,3.71-3.56,2.94Z"/>
    <path class="cls-1" d="M125.34,26.5c9.06-9.08,16.7-16.5,16.98-16.5s-6.91,7.42-15.98,16.5c-9.06,9.07-16.7,16.5-16.98,16.5s6.91-7.43,15.98-16.5Z"/>
    <path class="cls-1" d="M193.84,31c6.58-6.6,12.19-12,12.47-12s-4.89,5.4-11.47,12-12.19,12-12.47,12,4.89-5.4,11.47-12Z"/>
    <path class="cls-1" d="M31.45,36.18c2.42-2.65,5.29-5.4,6.39-6.11,1.1-.71-.69,1.46-3.97,4.82-7.12,7.29-8.61,8.08-2.42,1.29h0Z"/>
    <path class="cls-1" d="M190.34,40.69c0-.17,1.46-1.63,3.25-3.25l3.25-2.94-2.94,3.25c-2.74,3.03-3.56,3.71-3.56,2.94Z"/>
    <path class="cls-1" d="M195.84,40c.34-.55.82-1,1.06-1s.44.45.44,1-.48,1-1.06,1-.78-.45-.44-1Z"/>
    <path class="cls-1" d="M65.34,37.5c1.29-1.38,2.57-2.5,2.85-2.5s-.56,1.12-1.85,2.5-2.57,2.5-2.85,2.5.56-1.12,1.85-2.5Z"/>
    <path class="cls-1" d="M135.34,39.69c0-.17,1.46-1.63,3.25-3.25l3.25-2.94-2.94,3.25c-2.74,3.03-3.56,3.71-3.56,2.94Z"/>
    <path class="cls-1" d="M62.34,35.5c1.87-1.93,3.62-3.5,3.89-3.5s-1.03,1.57-2.89,3.5-3.62,3.5-3.89,3.5,1.03-1.57,2.89-3.5Z"/>
    <path class="cls-1" d="M111.29,34.75c2.45-2.61,4.59-4.75,4.75-4.75.75,0-.04.9-4.46,5.04l-4.75,4.46,4.46-4.75Z"/>
    <path class="cls-1" d="M145.03,38.36c-.8-.8.1-2.36,1.37-2.36.52,0,.94.68.94,1.5,0,1.55-1.18,1.99-2.31.86Z"/>
    <path class="cls-1" d="M177.34,36.5c1.29-1.38,2.57-2.5,2.85-2.5s-.56,1.12-1.85,2.5-2.57,2.5-2.85,2.5.56-1.12,1.85-2.5Z"/>
    <path class="cls-1" d="M119.34,37.62c0-.21.79-1,1.75-1.75,1.59-1.24,1.62-1.21.38.38-1.31,1.67-2.13,2.2-2.13,1.37Z"/>
    <path class="cls-1" d="M198.34,37.62c0-.21.79-1,1.75-1.75,1.59-1.24,1.62-1.21.38.38-1.31,1.67-2.13,2.2-2.13,1.37Z"/>
    <path class="cls-1" d="M132.34,36.62c0-.21.79-1,1.75-1.75,1.59-1.24,1.62-1.21.38.38-1.31,1.67-2.13,2.2-2.13,1.37Z"/>
    <path class="cls-1" d="M152.34,33.5c1.87-1.93,3.62-3.5,3.89-3.5s-1.03,1.57-2.89,3.5-3.62,3.5-3.89,3.5,1.03-1.57,2.89-3.5Z"/>
    <path class="cls-1" d="M73.84,18C83.72,8.1,92.04,0,92.32,0s-7.59,8.1-17.48,18-18.2,18-18.48,18,7.59-8.1,17.48-18Z"/>
    <path class="cls-1" d="M175.34,33.5c1.29-1.38,2.57-2.5,2.85-2.5s-.56,1.12-1.85,2.5-2.57,2.5-2.85,2.5.56-1.12,1.85-2.5Z"/>
    <path class="cls-1" d="M212.34,35.62c0-.21.79-1,1.75-1.75,1.59-1.24,1.62-1.21.38.38-1.31,1.67-2.13,2.2-2.13,1.37Z"/>
    <path class="cls-1" d="M188.34,31.5c1.87-1.93,3.62-3.5,3.89-3.5s-1.03,1.57-2.89,3.5-3.62,3.5-3.89,3.5,1.03-1.57,2.89-3.5Z"/>
    <path class="cls-1" d="M68.84,33c-.84-1.35.29-3,2.06-3,.79,0,1.44.9,1.44,2,0,2.07-2.41,2.76-3.5,1Z"/>
    <path class="cls-1" d="M103.34,33.62c0-.21.79-1,1.75-1.75,1.59-1.24,1.62-1.21.38.38-1.31,1.67-2.13,2.2-2.13,1.37Z"/>
    <path class="cls-1" d="M200.34,30.5c1.87-1.93,3.62-3.5,3.89-3.5s-1.03,1.57-2.89,3.5-3.62,3.5-3.89,3.5,1.03-1.57,2.89-3.5Z"/>
    <path class="cls-1" d="M105.84,26c3.82-3.85,7.17-7,7.45-7s-2.63,3.15-6.45,7-7.17,7-7.45,7,2.63-3.15,6.45-7Z"/>
    <path class="cls-1" d="M147.34,32.72c0-.15,3.49-3.64,7.75-7.75l7.75-7.47-7.47,7.75c-6.94,7.2-8.03,8.21-8.03,7.47Z"/>
    <path class="cls-1" d="M170.34,32.62c0-.21.79-1,1.75-1.75,1.59-1.24,1.62-1.21.38.38-1.31,1.67-2.13,2.2-2.13,1.37Z"/>
    <path class="cls-1" d="M184.34,29.5c1.87-1.93,3.62-3.5,3.89-3.5s-1.03,1.57-2.89,3.5-3.62,3.5-3.89,3.5,1.03-1.57,2.89-3.5Z"/>
    <path class="cls-1" d="M48.84,25c3.27-3.3,6.16-6,6.44-6s-2.17,2.7-5.44,6c-3.27,3.3-6.16,6-6.44,6s2.17-2.7,5.44-6Z"/>
    <path class="cls-1" d="M50.34,28.5c1.29-1.38,2.57-2.5,2.85-2.5s-.56,1.12-1.85,2.5-2.57,2.5-2.85,2.5.56-1.12,1.85-2.5Z"/>
    <path class="cls-1" d="M101.34,24.5c3.54-3.58,6.67-6.5,6.94-6.5s-2.4,2.92-5.94,6.5c-3.54,3.57-6.67,6.5-6.94,6.5s2.4-2.93,5.94-6.5Z"/>
    <path class="cls-1" d="M150.84,24c3.27-3.3,6.16-6,6.44-6s-2.17,2.7-5.44,6c-3.27,3.3-6.16,6-6.44,6s2.17-2.7,5.44-6Z"/>
    <path class="cls-1" d="M180.84,28c1-1.1,2.03-2,2.31-2s-.31.9-1.31,2-2.03,2-2.31,2,.31-.9,1.31-2Z"/>
    <path class="cls-1" d="M120.34,25.5c1.87-1.93,3.62-3.5,3.89-3.5s-1.03,1.57-2.89,3.5-3.62,3.5-3.89,3.5,1.03-1.57,2.89-3.5Z"/>
    <path class="cls-1" d="M140.34,28.62c0-.21.79-1,1.75-1.75,1.59-1.24,1.62-1.21.38.38-1.31,1.67-2.13,2.2-2.13,1.37Z"/>
    <path class="cls-1" d="M162.34,23.5c2.99-3.03,5.66-5.5,5.93-5.5s-1.94,2.47-4.93,5.5-5.66,5.5-5.93,5.5,1.94-2.47,4.93-5.5Z"/>
    <path class="cls-1" d="M43.84,24c2.15-2.2,4.13-4,4.41-4s-1.26,1.8-3.41,4c-2.15,2.2-4.13,4-4.41,4s1.26-1.8,3.41-4Z"/>
    <path class="cls-1" d="M70.34,27.62c0-.21.79-1,1.75-1.75,1.59-1.24,1.62-1.21.38.38-1.31,1.67-2.13,2.2-2.13,1.37Z"/>
    <path class="cls-1" d="M199.34,20.5c3.54-3.58,6.67-6.5,6.94-6.5s-2.4,2.92-5.94,6.5c-3.54,3.57-6.67,6.5-6.94,6.5s2.4-2.93,5.94-6.5Z"/>
    <path class="cls-1" d="M205.34,25.69c0-.17,1.46-1.63,3.25-3.25l3.25-2.94-2.94,3.25c-2.74,3.03-3.56,3.71-3.56,2.94Z"/>
    <path class="cls-1" d="M144.34,24.62c0-.21.79-1,1.75-1.75,1.59-1.24,1.62-1.21.38.38-1.31,1.67-2.13,2.2-2.13,1.37Z"/>
    <path class="cls-1" d="M191.34,22.5c1.29-1.38,2.57-2.5,2.85-2.5s-.56,1.12-1.85,2.5-2.57,2.5-2.85,2.5.56-1.12,1.85-2.5Z"/>
    <path class="cls-1" d="M79.84,18c3.27-3.3,6.16-6,6.44-6s-2.17,2.7-5.44,6-6.16,6-6.44,6,2.17-2.7,5.44-6Z"/>
    <path class="cls-1" d="M188.84,20c1-1.1,2.03-2,2.31-2s-.31.9-1.31,2-2.03,2-2.31,2,.31-.9,1.31-2Z"/>
    <path class="cls-1" d="M125.34,20.62c0-.21.79-1,1.75-1.75,1.59-1.24,1.62-1.21.38.38-1.31,1.67-2.13,2.2-2.13,1.37Z"/>
    <path class="cls-1" d="M182.34,20.62c0-.21.79-1,1.75-1.75,1.59-1.24,1.62-1.21.38.38-1.31,1.67-2.13,2.2-2.13,1.37Z"/>
    <path class="cls-1" d="M138.34,18.62c0-.21.79-1,1.75-1.75,1.59-1.24,1.62-1.21.38.38-1.31,1.67-2.13,2.2-2.13,1.37Z"/>
    <path class="cls-1" d="M129.34,16.62c0-.21.79-1,1.75-1.75,1.59-1.24,1.62-1.21.38.38-1.31,1.67-2.13,2.2-2.13,1.37Z"/>
    <path class="cls-1" d="M147.34,16.12c0-.55.45-1.28,1-1.62s1-.17,1,.38-.45,1.28-1,1.62-1,.17-1-.38Z"/>
    <path class="cls-1" d="M193.34,15.62c0-.21.79-1,1.75-1.75,1.59-1.24,1.62-1.21.38.38-1.31,1.67-2.13,2.2-2.13,1.37Z"/>
    <path class="cls-1" d="M133.34,12.62c0-.21.79-1,1.75-1.75,1.59-1.24,1.62-1.21.38.38-1.31,1.67-2.13,2.2-2.13,1.37Z"/>
    <path class="cls-1" d="M137.34,8.62c0-.21.79-1,1.75-1.75,1.59-1.24,1.62-1.21.38.38-1.31,1.67-2.13,2.2-2.13,1.37Z"/>
    <path class="cls-1" d="M197.34,5.62c0-.21.79-1,1.75-1.75,1.59-1.24,1.62-1.21.38.38-1.31,1.67-2.13,2.2-2.13,1.37Z"/>
    <path class="cls-1" d="M142.84,3c1-1.1,2.03-2,2.31-2s-.31.9-1.31,2-2.03,2-2.31,2,.31-.9,1.31-2Z"/>
    <path class="cls-1" d="M81.67,274.54c-1.76-1.57-3.73-6.03-6.56-14.84-2.23-6.92-4.05-12.89-4.05-13.25s3.56-.66,7.91-.66h7.91l3.62,11.48c4.03,12.8,3.95,15.75-.5,18.05-3.86,1.99-5.39,1.85-8.33-.78Z"/>
    <path class="cls-1" d="M39.14,265.15c-3.45-4.39-2.7-6.8,4.18-13.38l6.25-5.98h9.69c5.33,0,9.94.4,10.25.89.31.5-4.43,5.45-10.53,11-9.41,8.56-11.6,10.1-14.43,10.1-2.41,0-3.91-.73-5.41-2.63h0Z"/>
    <path class="cls-1" d="M2.07,241.79c-3.73-3.73-2.23-9.84,2.96-11.98,2.56-1.06,3.41-1.01,5.5.36,2.57,1.69,5.07,5.42,4.2,6.29-.27.27-1.05-.55-1.73-1.84-1.6-3.04-2.83-3.8-6.16-3.82-6-.03-7.49,8.45-2.01,11.42,1.96,1.06,2.24,1.5.99,1.53-.96.02-2.65-.86-3.75-1.96Z"/>
    <path class="cls-1" d="M33.32,243.04c11.41-.16,30.09-.16,41.5,0s2.07.29-20.75.29-32.16-.13-20.75-.29Z"/>
    <path class="cls-1" d="M56.07,240.96c0-.45,1.13-1.89,2.51-3.18,2.25-2.11,2.44-2.87,1.85-7.31-.92-6.93,1.45-5.9,4.33,1.89,3.37,9.1,3.26,9.42-3.19,9.42-3.02,0-5.5-.37-5.5-.83Z"/>
    <path class="cls-1" d="M66.79,233.54c-2.63-8.05-2.8-8.29-7.22-10.1-4.23-1.73-11.87-9.07-11.27-10.82.15-.42,4.32-2.82,9.27-5.32s7.92-4.34,6.61-4.09c-1.87.36-3.33-.56-6.71-4.23-2.38-2.58-4.34-4.99-4.36-5.36-.02-.37,3.34-4.34,7.46-8.83,8.46-9.22,9.43-12.34,4.93-15.88-3.28-2.58-6.48-1.52-11.07,3.67-3.69,4.17-4.52,2.62-1.36-2.55,3.53-5.78,10.44-8.68,14.95-6.27,1,.53,5.06,6.34,9.03,12.91l7.21,11.94,9.16,3.25c11,3.9,11.66,4.36,11.66,8.07,0,2.07-.67,3.2-2.36,3.97-2.28,1.04-5.32.15-22.94-6.67-.99-.38-2.9-2.32-4.25-4.3l-2.45-3.61.02,5.48c.03,7,.97,11.01,7.03,30.01,2.72,8.54,4.95,15.85,4.95,16.25,0,.4-3.51.72-7.79.72h-7.79l-2.69-8.25Z"/>
    <path class="cls-1" d="M4.12,238.88c-.77-1.44-.6-2.43.72-4.06,1.92-2.37,4.65-1.99,5.71.8.51,1.34.39,1.42-.62.42-2.18-2.16-5.04-1.55-4.68,1,.31,2.21.6,2.25,15.82,2.51,25.64.43,27.76.85,5.29,1.05-19.95.18-21.28.08-22.24-1.72h0Z"/>
    <path class="cls-1" d="M46.05,203.04c-6.05-6.72-7.54-9.43-6.34-11.55,2.16-3.8,20.72-22.7,22.29-22.7,2.06,0,5.08,3.03,5.06,5.08,0,.78-3.6,5.45-8,10.38-4.4,4.93-7.99,9.23-7.99,9.55s1.61,2.14,3.58,4.04c5.9,5.68,6.05,6.58,1.48,8.92-2.19,1.12-4.19,2.03-4.44,2.03s-2.79-2.59-5.64-5.75h0Z"/>
    <path class="cls-1" d="M98.39,177.6c-3.47-1.68-4.79-6-2.94-9.59,1.64-3.17,3.39-4.22,7.02-4.22,2.5,0,6.63,3.84,6.52,6.06-.04.86-.49.57-1.1-.7-3.03-6.26-11.06-5.05-11.63,1.75-.52,6.19.03,6.32,29.2,6.92l26.1.54-25.5.14c-16.11.09-26.3-.25-27.68-.91Z"/>
    <path class="cls-1" d="M100.01,174.57c-3.82-1.41-1.33-7.39,2.75-6.6.98.19,1.94,1.24,2.14,2.33q.35,1.98-1.18-.01c-1.42-1.86-1.64-1.89-3.21-.35-3.44,3.39-.96,3.85,20.78,3.85,11.61,0,20.83.28,20.49.62-.88.88-39.44,1.03-41.78.17h0Z"/>
    <path class="cls-1" d="M54.49,157.9c-1.69-1.03-3.83-3.46-4.75-5.4-4.64-9.79,1.81-19.72,12.82-19.72,4.18,0,5.21.46,8.63,3.88,3.81,3.81,4.52,5.97,3.97,12.12-.76,8.63-12.77,13.93-20.67,9.11h0Z"/>
    <path class="cls-1" d="M70.68,151.26c2.26-3.44,1.28-3.98-2.75-1.53-1.85,1.13-4.18,2.05-5.17,2.05-.99,0-1.53.45-1.19,1,.34.55,2.16,1,4.04,1,2.55,0,3.84-.64,5.08-2.53Z"/>
    <path class="cls-1" d="M85.57,145.79c2.75-1.18,4.33-1.18,2.5,0-.83.53-2.17.94-3,.91-.99-.04-.82-.35.5-.91Z"/>
    <path class="cls-1" d="M94.78,141.3c4.82-3.24,10.02-9.46,11.65-13.9.38-1.04.94-1.65,1.24-1.34,1.7,1.7-6.79,12.57-12.79,16.35-5.84,3.69-5.92,2.81-.1-1.11Z"/>
    <path class="cls-1" d="M96.85,120.59c-.9-2.44.38-3.8,3.56-3.8,2.62,0,3.42-.57,4.6-3.25.79-1.79,2.31-4.74,3.37-6.55l1.94-3.3,2.37,2.23c2.22,2.09,3.2,4.88,1.7,4.88-.37,0-1.56-.79-2.65-1.75-1.09-.96-2.15-1.3-2.36-.75-.21.55-1.83,3.7-3.6,7-2.53,4.71-3.79,6.07-5.84,6.3-1.48.17-2.83-.26-3.1-1h0Z"/>
  </g>
</svg>