<?xml version="1.0" encoding="UTF-8"?>
<svg id="Layer_2" data-name="Layer 2" xmlns="http://www.w3.org/2000/svg" viewBox="0 0 152.76 159.44">
  <g id="svg1">
    <g id="g1">
      <path id="path5" d="M53.36,158.4c-6.92-3.7-6.16-7.3,4.56-21.4l9.06-11.92-.61-11.5-.61-11.5,8.02,8.5,8.02,8.5.04,5.84.04,5.84-10.19,13.46c-5.6,7.4-10.44,13.6-10.75,13.77-2.03,1.1-5.87,1.31-7.56.4h0ZM98.32,158.63c-3.7-1.5-4.62-3.83-7.91-19.93l-3.26-15.95-11.5-12.37c-6.32-6.8-12.12-13.48-12.87-14.84-.94-1.69-1.38-6.16-1.4-14.21-.02-6.46-.16-11.75-.33-11.75-.75,0-5.19,10.97-6.28,15.5-2,8.34-6.21,11.03-9.47,6.06-1.46-2.23-1.46-2.97-.01-8.75,3.8-15.08,13.66-28.22,25.1-33.46,11.47-5.25,19.34.76,16.56,12.65l-.82,3.5-1.17-3c-.64-1.65-1.36-3.54-1.59-4.19s-1.51-1.9-2.84-2.78c-3.05-2-7.22-.66-8.8,2.81-.89,1.96-.43,4.23,2.59,12.77,2.29,6.46,4.62,11.24,6.17,12.65,1.92,1.74,2.64,3.61,3.08,8,.55,5.47.93,6.1,8.03,13.68,4.1,4.37,8.04,8.87,8.76,10,.72,1.13,2.94,10.05,4.92,19.82,3.84,18.87,3.81,20.05-.67,23.18-2.46,1.72-3.33,1.8-6.3.6h0ZM2.62,144.33c-1.96-1.51-2.4-3.52-1.41-6.45,1.02-3,4.2-3.82,7.19-1.86,3.1,2.03,3.21,5.91.23,8-2.69,1.88-3.89,1.94-6.02.31ZM8.71,141.15c.49-2.56-2.67-4.96-4.52-3.43-1.43,1.19-1.78,4.08-.62,5.24,1.34,1.34,4.77.13,5.14-1.81h0ZM121.4,135.65c-1.34-2.17-1.59-11.79-.32-12.78,2.12-1.67,10.32-2.35,12.02-1,2.09,1.67,3.04,9.94,1.4,12.18-1.42,1.94-12.08,3.24-13.1,1.6ZM132.61,133.31c1.36-1.07,1.4-6.2.07-8.92-.58-1.18-2.03-1.67-4.87-1.63-4.7.06-7.36,2.18-6.54,5.22.31,1.16.57,2.63.58,3.28.01.65.71,1.87,1.55,2.72,1.62,1.62,6.78,1.25,9.22-.66h0ZM31.86,128.67c-6.27-.83-8.3-2.24-8.17-5.71.41-10.89.73-12.6,2.67-14.02,1.2-.89,2.99-1.24,4.5-.87,1.38.33,4.23.7,6.34.81,5.18.28,8.08,3.74,7.27,8.68-.32,1.94-.59,4.73-.59,6.2-.01,1.47-.72,3.39-1.58,4.25-1.61,1.61-2.69,1.68-10.43.66ZM32.86,126.55c0-.69.69-.67,2.07.07,1.61.86,2.61.75,4.5-.49,1.34-.88,2.48-1.92,2.53-2.32.77-5.53.58-9.06-.58-10.83-1.8-2.75-5.52-3.83-5.52-1.6,0,1.25-.27,1.34-1.2.41-.66-.66-2.44-1.2-3.96-1.2-3.06,0-4.91,2.43-4.69,6.17.07,1.28-.17,3.03-.54,3.89-.88,2.06,2.96,6.93,5.47,6.93,1.06,0,1.93-.47,1.93-1.04h0ZM145.07,116.46c-2.91-1.08-2.99-5.87-.14-8.44,1.89-1.71,2.3-1.74,4.75-.37,6.24,3.49,2.15,11.32-4.61,8.82ZM150.41,113.41c1.27-4-4.49-6.04-6-2.12-.33.85-.08,2.17.55,2.92,1.72,2.08,4.67,1.65,5.45-.8h0ZM112.5,111.89c-1.13-1.13-.69-2.31.86-2.31.82,0,1.5.42,1.5.94,0,1.26-1.56,2.16-2.36,1.37ZM.33,97.53c-.95-1.54.35-2.53,1.63-1.25.72.72.74,1.28.05,1.7-.56.35-1.32.14-1.69-.45h0ZM125.36,96.58c.34-.55,1.04-1,1.56-1s.94.45.94,1-.7,1-1.56,1-1.28-.45-.94-1ZM22.91,92.63c-1.13-1.13-2.05-2.73-2.05-3.55,0-1.94,3.56-5.5,5.5-5.5s5.5,3.53,5.5,5.31c0,4.28-5.93,6.76-8.95,3.74ZM28.82,90.65c1.47-2.74-1.29-5.5-4.03-4.03-1.89,1.01-2.59,3.97-1.26,5.3,1.33,1.33,4.29.62,5.3-1.26ZM91.45,87.31l-11.91-6.23-3.34-9.5c-3.61-10.27-4-12.94-2.14-14.8,1.58-1.58,5.28-1.53,6.62.08.58.7,2.44,5.09,4.14,9.75l3.07,8.47,9.96,4.86c11.61,5.67,12.73,6.7,11.42,10.45-1.51,4.32-4.74,3.77-17.81-3.08h0ZM125.3,68.14c-.92-1.41-2.23-2.56-2.91-2.56-4.39,0-6.08-8.61-2.29-11.68,1.24-1,3.05-3.06,4.02-4.57,1.26-1.96,2.6-2.75,4.67-2.75,2.81,0,6.05,2.18,6.05,4.07,0,.51.64.93,1.43.93s2.39,1.22,3.56,2.71c2.48,3.15,2.03,6.91-1.1,9.34-1.1.85-2.54,2.65-3.21,4-1.83,3.69-7.94,4-10.23.51h0ZM135.4,64.83c2.39-2.6,3.45-4.71,3.45-6.88.01-3.71-2.04-5.93-3.82-4.15-.9.9-1.18.78-1.18-.5,0-.92-1.12-2.41-2.5-3.32-2.32-1.52-2.68-1.52-5,0-1.38.9-2.5,2.19-2.5,2.87s-.9,1.8-2,2.49c-1.24.78-2,2.33-2,4.12,0,2.99,2.23,5.71,3.85,4.71.52-.32,1.2.1,1.52.94.52,1.36,3.79,3.24,5.93,3.41.44.03,2.35-1.62,4.25-3.69h0ZM18.86,62.08c0-.92.48-1.51,1.07-1.31.59.2,1.07.79,1.07,1.31s-.48,1.11-1.07,1.31c-.59.2-1.07-.39-1.07-1.31ZM150.05,62.51c.2-.59.79-1.08,1.31-1.08s1.11.48,1.31,1.08c.2.59-.39,1.08-1.31,1.08s-1.51-.48-1.31-1.08ZM30.86,46.58c-1.1-1.1-2-2.85-2-3.88s-.62-3.4-1.37-5.25c-2.21-5.43.48-9.87,5.97-9.87,1.81,0,3.56-.45,3.9-1,1.01-1.63,6.07-1.14,7.72.75,1.41,1.61,1.91,3.35,3.41,11.77.62,3.51-1.95,6.51-5.77,6.72-1.3.07-3.25.72-4.33,1.45-2.78,1.85-5.21,1.63-7.53-.69h0ZM45.52,42.44c1.79-1.48,1.81-7.26.03-6.57-.94.36-1.2-.28-.91-2.23.54-3.69-2.23-6.43-5.69-5.63-1.43.33-3.72.84-5.09,1.14-4.54.99-7.24,6.05-4.62,8.67.79.79,1.6,2.52,1.78,3.83.53,3.7,4.25,5.06,9.14,3.33,2.22-.78,4.63-1.92,5.37-2.53h0ZM89.69,45.64c-2.02-.39-4.82-1.47-6.23-2.39-2.5-1.64-6.2-7.41-5.31-8.29.24-.24,3.22,1.21,6.6,3.23s6.41,3.43,6.71,3.13c.3-.3-2.64-2.44-6.53-4.75-3.89-2.31-7.08-4.6-7.08-5.09,0-1.22.34-1.17,8.24,1.18,3.82,1.14,7.2,1.82,7.5,1.52.3-.3-.08-.75-.85-.99-.77-.24-4.45-1.42-8.18-2.62l-6.79-2.17,1.94-3.16c3.86-6.28,12.65-8.47,18.84-4.7,3.84,2.34,6,6.22,6.7,12.01.64,5.33-1.18,9.11-5.75,11.94-3.59,2.22-4.06,2.28-9.82,1.15h0ZM100.84,41.6c3.91-3.65,3.54-5.21-1.48-6.26-4.55-.94-5.46-.03-5.48,5.49-.02,4.77,2.4,5.04,6.97.77h0ZM64.86,34.58c0-.55.45-1,1-1s1,.45,1,1-.45,1-1,1-1-.45-1-1ZM115.14,19.36c-1.95-2.47-2.22-9.64-.44-11.68,2.39-2.72,10.43-3.57,12.42-1.32,1.96,2.22,2.14,10.63.26,12.19-2.12,1.76-11.03,2.34-12.24.8ZM126.89,17.04c.74-.89.82-2.77.25-5.64-.85-4.28-.89-4.31-5.32-4.47-5.99-.21-7.25.98-6.44,6.07.36,2.24,1.25,4.55,1.99,5.14,1.72,1.36,8.08.63,9.52-1.1h0ZM18.3,16.13c-2.02-3.09-1.08-6.35,2.18-7.59,2.36-.9,6.38.5,6.38,2.2,0,.37.26,1.35.58,2.18.73,1.91-2.95,5.66-5.55,5.66-1.09,0-2.7-1.1-3.58-2.45h0ZM25.14,15.33c.73-2.03-1.19-4.75-3.35-4.75s-3.46,2.19-2.57,4.5c.7,1.81,5.29,2.01,5.92.25ZM56.92,14.16c-1.92-2.31-2.39-11.06-.68-12.48,2.07-1.72,11.19-2.32,12.38-.81,1.63,2.08,2.28,10.29.95,11.97-1.77,2.22-11.09,3.2-12.65,1.33h0ZM67.64,12.33c1.55-1.88,1.23-8.49-.47-9.91-2.08-1.73-8.54-1.14-10.09.92-1.35,1.79-.79,6.75,1.02,8.99.55.69,2.7,1.25,4.76,1.25s4.22-.56,4.78-1.25h0Z"/>
    </g>
  </g>
</svg>