<?xml version="1.0" encoding="UTF-8"?>
<svg id="Layer_2" data-name="Layer 2" xmlns="http://www.w3.org/2000/svg" viewBox="0 0 248.75 249.72">
  <g id="svg1">
    <g id="g1">
      <path id="path5" d="M13.51,248.01c-3.23-2.54-3.37-4.68-1.61-26.29,1.06-13.05,1-14.44-1.14-24.03-2.03-9.13-2.59-10.39-5.34-12.19-4.52-2.95-5.91-8.61-5.28-21.5.59-12,3.37-22.35,7.24-26.95,5.01-5.95,14.6-6.27,17.19-.58.58,1.28,2.47,7.89,4.19,14.68,2.78,10.97,3.85,13.49,9.57,22.47,3.54,5.56,6.44,11.06,6.44,12.21,0,2.76,3.58,4.76,5.56,3.12.79-.66,1.44-1.81,1.44-2.57s.36-1.38.81-1.38,13.7,12.38,29.46,27.52c18.11,17.39,28.46,28.02,28.12,28.9-.29.76-.05,1.68.54,2.04,2.16,1.33.98,2.33-2.39,2.02-3.45-.32-4.48-1.05-54.8-39.03l-11.75-8.87,2.75-2.19c2.72-2.17,2.73-2.21.84-4.31-1.06-1.18-2.63-1.89-3.53-1.6-1.11.35-1.67-.14-1.78-1.56-.15-2.03-2.85-5.74-12.32-16.92l-4.65-5.5-.64-10.8c-.35-5.94-1.11-11.67-1.68-12.74-1.49-2.78-5.49-3.51-8.48-1.54-2.45,1.61-2.49,1.85-2.49,15.04v13.41l7.03,8.6c6.75,8.26,7.12,8.99,9.4,18.63,2.35,9.93,2.36,10.21.98,27.22-2.04,25.21-1.99,25.05-8.02,26.26-2.11.42-3.68-.01-5.65-1.57h0ZM31.84,195.58c-.97-1.17-.81-1.32.88-.88,1.13.3,2.06.94,2.06,1.42,0,1.35-1.61,1.05-2.93-.54ZM21.61,181.26l-9.66-11.7-.7-12.14c-.78-13.46-.06-16.42,3.99-16.42,4.53,0,5.54,2.29,5.54,12.64,0,5.26.52,10.47,1.16,11.68.64,1.2,4.69,6.51,9,11.8s7.84,10.48,7.84,11.55c0,2.67-1.92,4.34-4.95,4.32-2.03-.01-4.53-2.41-12.21-11.72h0ZM8.79,126.25c-4.53-2.28-8.02-7.56-8.02-12.15,0-6.81,6.86-14.09,13.28-14.1,3.99,0,9.19,2.4,11.11,5.14,5.38,7.65,3.25,17.3-4.6,20.86-5.33,2.42-7.36,2.46-11.77.24h0ZM97.77,94.5c3.54-3.57,6.67-6.5,6.94-6.5s-2.4,2.93-5.94,6.5-6.67,6.5-6.94,6.5,2.4-2.93,5.94-6.5ZM46.27,92c3.82-3.85,7.17-7,7.45-7s-2.63,3.15-6.45,7-7.17,7-7.45,7,2.63-3.15,6.45-7ZM52.77,91.5c2.99-3.02,5.66-5.5,5.93-5.5s-1.94,2.48-4.93,5.5-5.66,5.5-5.93,5.5,1.94-2.48,4.93-5.5ZM106.27,92c2.15-2.2,4.13-4,4.41-4s-1.26,1.8-3.41,4c-2.15,2.2-4.13,4-4.41,4s1.26-1.8,3.41-4ZM149.77,93.5c1.29-1.38,2.57-2.5,2.85-2.5s-.56,1.12-1.85,2.5-2.57,2.5-2.85,2.5.56-1.12,1.85-2.5ZM59.27,90c2.71-2.75,5.15-5,5.42-5s-1.72,2.25-4.42,5c-2.71,2.75-5.15,5-5.42,5s1.72-2.25,4.42-5ZM95.77,91.5c1.87-1.93,3.62-3.5,3.89-3.5s-1.03,1.57-2.89,3.5-3.62,3.5-3.89,3.5,1.03-1.57,2.89-3.5ZM112.73,90.75c2.45-2.61,4.59-4.75,4.75-4.75.75,0-.04.9-4.46,5.04l-4.75,4.46,4.46-4.75ZM178.77,87.5c2.99-3.03,5.66-5.5,5.93-5.5s-1.94,2.47-4.93,5.5c-2.99,3.02-5.66,5.5-5.93,5.5s1.94-2.48,4.93-5.5ZM140.77,91.69c0-.17,1.46-1.63,3.25-3.25l3.25-2.94-2.94,3.25c-2.74,3.03-3.56,3.71-3.56,2.94ZM66.77,88.5c1.29-1.38,2.57-2.5,2.85-2.5s-.56,1.12-1.85,2.5-2.57,2.5-2.85,2.5.56-1.12,1.85-2.5ZM121.27,88c1-1.1,2.03-2,2.31-2s-.31.9-1.31,2-2.03,2-2.31,2,.31-.9,1.31-2ZM149.27,88c1-1.1,2.03-2,2.31-2s-.31.9-1.31,2-2.03,2-2.31,2,.31-.9,1.31-2ZM155.77,87.5c1.29-1.38,2.57-2.5,2.85-2.5s-.56,1.12-1.85,2.5-2.57,2.5-2.85,2.5.56-1.12,1.85-2.5ZM199.77,85.5c1.87-1.93,3.62-3.5,3.89-3.5s-1.03,1.57-2.89,3.5-3.62,3.5-3.89,3.5,1.03-1.57,2.89-3.5ZM203.77,87.69c0-.17,1.46-1.63,3.25-3.25l3.25-2.94-2.94,3.25c-2.74,3.03-3.56,3.71-3.56,2.94ZM133.52,85.02c-2.08-1.64-4.06-2.02-10.48-2.02-4.51,0-9.86.66-12.45,1.54-4.08,1.39-4.98,1.39-8.93.01-3.37-1.17-9.41-1.56-25.89-1.64-19.17-.1-39.65-1.37-28.75-1.77,2.89-.11,3.75-.55,3.75-1.94,0-2.26,1.88-4.2,4.08-4.2.92,0,2.26-.71,2.98-1.57.76-.91,2.15-1.35,3.34-1.04,2.23.58,5.61-1.88,5.61-4.09s4.65-6.3,7.02-6.3c1.16,0,3.59-1.12,5.39-2.5,2.11-1.61,4.58-2.5,6.91-2.5h3.64l-.54-4.25c-.73-5.76,2.06-10.22,7.38-11.81,5.15-1.54,10.82.92,12.75,5.56.99,2.36,2.32,3.45,5.33,4.35,4.05,1.21,7.14,4.46,9.07,9.54.89,2.34,1.24,2.5,2.99,1.41,1.5-.94,2.96-.97,6.05-.15,3.6.96,4.19.87,5.07-.77,1.46-2.72,6.26-4.88,10.85-4.88,3.06,0,4.85.73,7.55,3.1,1.94,1.71,3.53,3.71,3.53,4.44s1,2.04,2.23,2.9c1.22.86,2.91,3,3.75,4.77.92,1.93,2.52,3.44,4.02,3.79,1.79.42,2.59,1.35,2.82,3.29.28,2.37.78,2.73,4,2.86,7,.28-7.87,1.52-20.79,1.74-8.71.15-12.93.61-14,1.54-2.86,2.5-5.6,2.7-8.28.59ZM212.77,83.5c1.87-1.93,3.62-3.5,3.89-3.5s-1.03,1.57-2.89,3.5-3.62,3.5-3.89,3.5,1.03-1.57,2.89-3.5ZM218.27,84c1-1.1,2.03-2,2.31-2s-.31.9-1.31,2-2.03,2-2.31,2,.31-.9,1.31-2ZM32.27,78c3.27-3.3,6.16-6,6.44-6s-2.17,2.7-5.44,6-6.16,6-6.44,6,2.17-2.7,5.44-6ZM204.77,78.98c-.86-.57-7.21-.88-14.83-.73l-13.33.26-2.01-2.75c-1.1-1.51-2.86-2.75-3.91-2.75-1.22,0-2.42-1.23-3.33-3.42-.79-1.88-2.37-3.92-3.51-4.54-4.23-2.26-.89-8.05,4.64-8.05,1.94,0,2.28-.52,2.28-3.57,0-4.89,1.39-7.08,5.34-8.38,4.76-1.57,7.93-.15,10.54,4.72.66,1.23,1.82,2.23,2.58,2.23,2.22,0,7.27,4.77,7.96,7.52.55,2.21.9,2.38,2.74,1.4,1.52-.81,2.76-.83,4.46-.05,1.98.9,2.74.69,4.79-1.36,3.18-3.18,6.91-4.04,10.71-2.47,2.74,1.13,4.91,3.67,9.89,11.58.83,1.31,2.04,2.38,2.69,2.38.66,0,1.78.82,2.5,1.83s2.21,2.34,3.31,2.97c1.57.9-.9,1.15-11.63,1.17-10.87.02-13.88.33-14.87,1.53-1.42,1.71-4.79,1.94-7,.48h0ZM39.27,76c1-1.1,2.03-2,2.31-2s-.31.9-1.31,2-2.03,2-2.31,2,.31-.9,1.31-2ZM33.77,70.5c2.99-3.03,5.66-5.5,5.93-5.5s-1.94,2.47-4.93,5.5-5.66,5.5-5.93,5.5,1.94-2.47,4.93-5.5ZM48.27,73c1-1.1,2.03-2,2.31-2s-.31.9-1.31,2-2.03,2-2.31,2,.31-.9,1.31-2ZM45.77,69.5c1.87-1.93,3.62-3.5,3.89-3.5s-1.03,1.57-2.89,3.5-3.62,3.5-3.89,3.5,1.03-1.57,2.89-3.5ZM41.77,68.5c1.29-1.38,2.57-2.5,2.85-2.5s-.56,1.12-1.85,2.5-2.57,2.5-2.85,2.5.56-1.12,1.85-2.5ZM236.77,65.62c0-.21.79-1,1.75-1.75,1.59-1.24,1.62-1.21.38.38-1.31,1.67-2.13,2.2-2.13,1.37ZM15.77,64.62c0-.21.79-1,1.75-1.75,1.59-1.24,1.62-1.21.38.38-1.31,1.67-2.13,2.2-2.13,1.37ZM44.79,63.22c-6.32-.16-11.92-.72-12.45-1.25-.62-.62-.36-.97.73-.97s1.7-.79,1.7-2.09.8-2.3,2-2.62c1.1-.29,2-1.08,2-1.75s.9-2.04,2-3.04c1.15-1.04,2-3.08,2-4.79s.87-4.38,1.93-6.1c5.76-9.3,19.38-8.93,24.57.67,1.1,2.04,2.48,3.7,3.08,3.71.59,0,2.15,1.14,3.46,2.54s3.08,2.37,3.92,2.18c1.84-.43,7.04,1.96,7.04,3.24,0,.49-1.33,1.19-2.95,1.54-1.62.36-3.99,1.46-5.25,2.44s-3.42,2.13-4.8,2.53c-1.38.41-3.62,1.48-5,2.39-2.63,1.73-4.6,1.84-23.98,1.36ZM30.27,56c3.82-3.85,7.17-7,7.45-7s-2.63,3.15-6.45,7-7.17,7-7.45,7,2.63-3.15,6.45-7ZM238.27,53c5.48-5.5,10.19-10,10.46-10s-3.98,4.5-9.46,10c-5.48,5.5-10.19,10-10.46,10s3.98-4.5,9.46-10ZM239.27,57c3.27-3.3,6.16-6,6.44-6s-2.17,2.7-5.44,6c-3.27,3.3-6.16,6-6.44,6s2.17-2.7,5.44-6ZM242.77,59.5c1.29-1.38,2.57-2.5,2.85-2.5s-.56,1.12-1.85,2.5-2.57,2.5-2.85,2.5.56-1.12,1.85-2.5ZM126.77,56.05c-1.38-1.59-5.17-4.3-8.44-6.02-3.39-1.78-6.92-4.57-8.23-6.49-5.59-8.22-19.04-6.51-22.43,2.85-1.14,3.16-1.33,3.27-3.73,2.02-1.39-.72-2.92-1.07-3.39-.78-.98.61-3.78-1.43-3.78-2.76,0-.48.9-.88,2-.88,1.43,0,2-.67,2-2.35,0-2.66,2.83-5.65,5.33-5.65,1.25,0,1.67-.9,1.67-3.58,0-4.74,4.48-9.42,9-9.42,4.26,0,9,4.7,9,8.92,0,2.84.27,3.08,3.42,3.08,4.75,0,9.4,4.07,10.18,8.9.54,3.4.84,3.69,3.38,3.31,1.71-.25,3.2-1.32,3.87-2.78,2.19-4.81,10.58-4.4,12.47.61,1.19,3.14,2.68,3.95,2.68,1.45,0-2.12,3.36-1.86,5.43.43,1.98,2.19,1.78,5.01-.43,6.1-5.65,2.77-9.58,3.98-12.95,3.98-2.14,0-4.03.44-4.22.97s-1.46-.33-2.83-1.92ZM157.67,57.38c-.77-.93-2.93-2.33-4.81-3.11l-3.41-1.42,2.91-1.92c3.77-2.49,7.49-2.44,10.77.14,3.36,2.65,3.33,4.26-.12,5.98-1.51.76-3.02,1.52-3.35,1.69-.33.17-1.23-.44-2-1.37ZM197.47,56.07c-1.69-2.85-1.67-3,.68-5.73,3.22-3.74,9.31-3.93,13.06-.4,1.41,1.32,2.54,2.89,2.51,3.48-.08,2-7.02,5.58-10.81,5.58-3.05,0-4.03-.53-5.44-2.93ZM228.77,56.5c1.29-1.38,2.57-2.5,2.85-2.5s-.56,1.12-1.85,2.5c-1.29,1.38-2.57,2.5-2.85,2.5s.56-1.12,1.85-2.5ZM22.77,57.62c0-.21.79-1,1.75-1.75,1.59-1.24,1.62-1.21.38.38-1.31,1.67-2.13,2.2-2.13,1.37ZM166.27,52.15c-2.8-3.71-3.08-10.83-.45-11.67,1.07-.34,2.44-1.53,3.03-2.64,1.42-2.65,6.71-4.8,10.19-4.14,3.52.67,6.73,4.71,6.73,8.46,0,2.56-.23,2.78-1.93,1.87-1.06-.57-3.69-1.04-5.83-1.04-4.7,0-8.25,3.25-9.14,8.38l-.6,3.42-2-2.65ZM215.37,52.16c-.35-.56-.14-1.32.45-1.69,1.54-.95,2.53.35,1.25,1.63-.72.72-1.28.74-1.7.05ZM237.77,47.5c2.99-3.03,5.66-5.5,5.93-5.5s-1.94,2.47-4.93,5.5-5.66,5.5-5.93,5.5,1.94-2.47,4.93-5.5ZM190.52,50.43c-3.45-1.87-3.6-3.82-.25-3.18,1.38.26,2.5.14,2.5-.27,0-1.12,3.61-1.84,4.97-1,.85.52.48,1.5-1.25,3.38-2.83,3.06-2.43,2.99-5.97,1.07ZM30.77,49.62c0-.21.79-1,1.75-1.75,1.59-1.24,1.62-1.21.38.38-1.31,1.67-2.13,2.2-2.13,1.37ZM153.77,44.5c1.87-1.93,3.62-3.5,3.89-3.5s-1.03,1.57-2.89,3.5-3.62,3.5-3.89,3.5,1.03-1.57,2.89-3.5ZM221.77,44.5c1.87-1.93,3.62-3.5,3.89-3.5s-1.03,1.57-2.89,3.5-3.62,3.5-3.89,3.5,1.03-1.57,2.89-3.5ZM158.77,44.5c1.29-1.38,2.57-2.5,2.85-2.5s-.56,1.12-1.85,2.5-2.57,2.5-2.85,2.5.56-1.12,1.85-2.5ZM36.27,44c1-1.1,2.03-2,2.31-2s-.31.9-1.31,2-2.03,2-2.31,2,.31-.9,1.31-2ZM217.77,42.5c1.87-1.93,3.62-3.5,3.89-3.5s-1.03,1.57-2.89,3.5-3.62,3.5-3.89,3.5,1.03-1.57,2.89-3.5ZM191.73,40.75c4.14-4.42,5.04-5.21,5.04-4.46,0,.16-2.14,2.3-4.75,4.75l-4.75,4.46,4.46-4.75ZM148.77,43.69c0-.17,1.46-1.63,3.25-3.25l3.25-2.94-2.94,3.25c-2.74,3.03-3.56,3.71-3.56,2.94ZM137.77,26.5c9.06-9.08,16.7-16.5,16.98-16.5s-6.91,7.42-15.98,16.5c-9.06,9.07-16.7,16.5-16.98,16.5s6.91-7.43,15.98-16.5ZM206.27,31c6.58-6.6,12.19-12,12.47-12s-4.89,5.4-11.47,12-12.19,12-12.47,12,4.89-5.4,11.47-12ZM43.88,36.18c2.42-2.65,5.29-5.4,6.39-6.11,1.1-.71-.69,1.46-3.97,4.82-7.12,7.29-8.61,8.08-2.42,1.29h0ZM202.77,40.69c0-.17,1.46-1.63,3.25-3.25l3.25-2.94-2.94,3.25c-2.74,3.03-3.56,3.71-3.56,2.94ZM208.27,40c.34-.55.82-1,1.06-1s.44.45.44,1-.48,1-1.06,1-.78-.45-.44-1ZM77.77,37.5c1.29-1.38,2.57-2.5,2.85-2.5s-.56,1.12-1.85,2.5-2.57,2.5-2.85,2.5.56-1.12,1.85-2.5ZM147.77,39.69c0-.17,1.46-1.63,3.25-3.25l3.25-2.94-2.94,3.25c-2.74,3.03-3.56,3.71-3.56,2.94ZM74.77,35.5c1.87-1.93,3.62-3.5,3.89-3.5s-1.03,1.57-2.89,3.5-3.62,3.5-3.89,3.5,1.03-1.57,2.89-3.5ZM123.73,34.75c2.45-2.61,4.59-4.75,4.75-4.75.75,0-.04.9-4.46,5.04l-4.75,4.46,4.46-4.75ZM157.47,38.36c-.8-.8.1-2.36,1.37-2.36.52,0,.94.68.94,1.5,0,1.55-1.18,1.99-2.31.86ZM189.77,36.5c1.29-1.38,2.57-2.5,2.85-2.5s-.56,1.12-1.85,2.5-2.57,2.5-2.85,2.5.56-1.12,1.85-2.5ZM131.77,37.62c0-.21.79-1,1.75-1.75,1.59-1.24,1.62-1.21.38.38-1.31,1.67-2.13,2.2-2.13,1.37ZM210.77,37.62c0-.21.79-1,1.75-1.75,1.59-1.24,1.62-1.21.38.38-1.31,1.67-2.13,2.2-2.13,1.37ZM144.77,36.62c0-.21.79-1,1.75-1.75,1.59-1.24,1.62-1.21.38.38-1.31,1.67-2.13,2.2-2.13,1.37ZM164.77,33.5c1.87-1.93,3.62-3.5,3.89-3.5s-1.03,1.57-2.89,3.5-3.62,3.5-3.89,3.5,1.03-1.57,2.89-3.5ZM86.27,18C96.16,8.1,104.48,0,104.75,0s-7.59,8.1-17.48,18-18.2,18-18.48,18,7.59-8.1,17.48-18ZM187.77,33.5c1.29-1.38,2.57-2.5,2.85-2.5s-.56,1.12-1.85,2.5-2.57,2.5-2.85,2.5.56-1.12,1.85-2.5ZM224.77,35.62c0-.21.79-1,1.75-1.75,1.59-1.24,1.62-1.21.38.38-1.31,1.67-2.13,2.2-2.13,1.37ZM200.77,31.5c1.87-1.93,3.62-3.5,3.89-3.5s-1.03,1.57-2.89,3.5-3.62,3.5-3.89,3.5,1.03-1.57,2.89-3.5ZM81.27,33c-.84-1.35.29-3,2.06-3,.79,0,1.44.9,1.44,2,0,2.07-2.41,2.76-3.5,1ZM115.77,33.62c0-.21.79-1,1.75-1.75,1.59-1.24,1.62-1.21.38.38-1.31,1.67-2.13,2.2-2.13,1.37ZM212.77,30.5c1.87-1.93,3.62-3.5,3.89-3.5s-1.03,1.57-2.89,3.5-3.62,3.5-3.89,3.5,1.03-1.57,2.89-3.5ZM118.27,26c3.82-3.85,7.17-7,7.45-7s-2.63,3.15-6.45,7-7.17,7-7.45,7,2.63-3.15,6.45-7ZM159.77,32.72c0-.15,3.49-3.64,7.75-7.75l7.75-7.47-7.47,7.75c-6.94,7.2-8.03,8.21-8.03,7.47ZM182.77,32.62c0-.21.79-1,1.75-1.75,1.59-1.24,1.62-1.21.38.38-1.31,1.67-2.13,2.2-2.13,1.37ZM196.77,29.5c1.87-1.93,3.62-3.5,3.89-3.5s-1.03,1.57-2.89,3.5-3.62,3.5-3.89,3.5,1.03-1.57,2.89-3.5ZM61.27,25c3.27-3.3,6.16-6,6.44-6s-2.17,2.7-5.44,6c-3.27,3.3-6.16,6-6.44,6s2.17-2.7,5.44-6ZM62.77,28.5c1.29-1.38,2.57-2.5,2.85-2.5s-.56,1.12-1.85,2.5-2.57,2.5-2.85,2.5.56-1.12,1.85-2.5ZM113.77,24.5c3.54-3.58,6.67-6.5,6.94-6.5s-2.4,2.92-5.94,6.5c-3.54,3.57-6.67,6.5-6.94,6.5s2.4-2.93,5.94-6.5ZM163.27,24c3.27-3.3,6.16-6,6.44-6s-2.17,2.7-5.44,6c-3.27,3.3-6.16,6-6.44,6s2.17-2.7,5.44-6ZM193.27,28c1-1.1,2.03-2,2.31-2s-.31.9-1.31,2-2.03,2-2.31,2,.31-.9,1.31-2ZM132.77,25.5c1.87-1.93,3.62-3.5,3.89-3.5s-1.03,1.57-2.89,3.5-3.62,3.5-3.89,3.5,1.03-1.57,2.89-3.5ZM152.77,28.62c0-.21.79-1,1.75-1.75,1.59-1.24,1.62-1.21.38.38-1.31,1.67-2.13,2.2-2.13,1.37ZM174.77,23.5c2.99-3.03,5.66-5.5,5.93-5.5s-1.94,2.47-4.93,5.5-5.66,5.5-5.93,5.5,1.94-2.47,4.93-5.5ZM56.27,24c2.15-2.2,4.13-4,4.41-4s-1.26,1.8-3.41,4c-2.15,2.2-4.13,4-4.41,4s1.26-1.8,3.41-4ZM82.77,27.62c0-.21.79-1,1.75-1.75,1.59-1.24,1.62-1.21.38.38-1.31,1.67-2.13,2.2-2.13,1.37ZM211.77,20.5c3.54-3.58,6.67-6.5,6.94-6.5s-2.4,2.92-5.94,6.5c-3.54,3.57-6.67,6.5-6.94,6.5s2.4-2.93,5.94-6.5ZM217.77,25.69c0-.17,1.46-1.63,3.25-3.25l3.25-2.94-2.94,3.25c-2.74,3.03-3.56,3.71-3.56,2.94ZM156.77,24.62c0-.21.79-1,1.75-1.75,1.59-1.24,1.62-1.21.38.38-1.31,1.67-2.13,2.2-2.13,1.37ZM203.77,22.5c1.29-1.38,2.57-2.5,2.85-2.5s-.56,1.12-1.85,2.5-2.57,2.5-2.85,2.5.56-1.12,1.85-2.5ZM92.27,18c3.27-3.3,6.16-6,6.44-6s-2.17,2.7-5.44,6-6.16,6-6.44,6,2.17-2.7,5.44-6ZM201.27,20c1-1.1,2.03-2,2.31-2s-.31.9-1.31,2-2.03,2-2.31,2,.31-.9,1.31-2ZM137.77,20.62c0-.21.79-1,1.75-1.75,1.59-1.24,1.62-1.21.38.38-1.31,1.67-2.13,2.2-2.13,1.37ZM194.77,20.62c0-.21.79-1,1.75-1.75,1.59-1.24,1.62-1.21.38.38-1.31,1.67-2.13,2.2-2.13,1.37ZM150.77,18.62c0-.21.79-1,1.75-1.75,1.59-1.24,1.62-1.21.38.38-1.31,1.67-2.13,2.2-2.13,1.37ZM141.77,16.62c0-.21.79-1,1.75-1.75,1.59-1.24,1.62-1.21.38.38-1.31,1.67-2.13,2.2-2.13,1.37ZM159.77,16.12c0-.55.45-1.28,1-1.62s1-.17,1,.38-.45,1.28-1,1.62-1,.17-1-.38ZM205.77,15.62c0-.21.79-1,1.75-1.75,1.59-1.24,1.62-1.21.38.38-1.31,1.67-2.13,2.2-2.13,1.37ZM145.77,12.62c0-.21.79-1,1.75-1.75,1.59-1.24,1.62-1.21.38.38-1.31,1.67-2.13,2.2-2.13,1.37ZM149.77,8.62c0-.21.79-1,1.75-1.75,1.59-1.24,1.62-1.21.38.38-1.31,1.67-2.13,2.2-2.13,1.37ZM209.77,5.62c0-.21.79-1,1.75-1.75,1.59-1.24,1.62-1.21.38.38-1.31,1.67-2.13,2.2-2.13,1.37ZM155.27,3c1-1.1,2.03-2,2.31-2s-.31.9-1.31,2-2.03,2-2.31,2,.31-.9,1.31-2Z"/>
    </g>
  </g>
</svg>