<?xml version="1.0" encoding="UTF-8"?>
<svg id="Layer_2" data-name="Layer 2" xmlns="http://www.w3.org/2000/svg" viewBox="0 0 268.65 205.86">
  <g id="svg1">
    <g id="g1">
      <path id="path5" d="M43.59,205.3c-3.18-.82-1.24-2.74,4.87-4.8l5.94-2-11.75-.28c-11.06-.27-14.05-1.08-10-2.71.96-.39,10.64-.95,21.5-1.25,20.86-.58,21.95-.34,18.15,3.85-1.8,1.99-1.97,1.93,12.02,3.58,11.42,1.34,9.19,2.92-5.14,3.65-14.03.72-32.75.69-35.59-.04h0ZM73.45,204.34c13.8-.66,16.17-2.12,3.67-2.26-4.83-.05-6.43-.45-6.9-1.69-.38-.98.04-1.99,1.03-2.55,3.85-2.16,1.13-2.82-11.1-2.72-7.01.06-15.45.44-18.75.85-5.44.68-4.99.76,4.83.89,12.66.17,13.69,1.47,3.59,4.52-5.63,1.7-6.12,2.03-3.93,2.68,3.36,1,10.94,1.07,27.55.28ZM176.65,205.31c-4.66-.54-4.85-2.42-.52-5.16,4.23-2.68,3.52-2.86-14.69-3.65-15.05-.65-20.73-1.73-14.95-2.83,2.91-.55,55.95-1.2,70.67-.86,4.26.1,7.75.61,7.75,1.13,0,1.16-6.37,3.02-10.5,3.07-2.15.03-2.58.27-1.5.88.83.46,6.9,1.08,13.5,1.38,11.93.54,18.14,1.87,17.04,3.65-.32.51-2.93,1.18-5.81,1.47-7.01.72-56.25,1.46-60.98.91ZM237.4,203.16c7.41-1.34.89-2.38-18.25-2.92-22.5-.63-23.71-1.52-5.78-4.28,3.83-.59,7.17-1.27,7.42-1.52.24-.24-14.37-.39-32.47-.32-19.97.08-31.15.44-28.42.93,2.47.44,7.74.83,11.69.87,8.25.08,9.94,1.36,5.97,4.53-1.46,1.17-2.66,2.44-2.66,2.83,0,.93,57.29.82,62.5-.13h0ZM109.17,204.1c-8.45-1.45-6.77-3.7,3.78-5.07,4.1-.53,10.01-.98,13.13-1,8.99-.05,14.03,2.81,8.57,4.86-3.28,1.23-20.55,2.05-25.48,1.2ZM134.54,201.7c1.94-1.95-2.61-2.79-12.07-2.24-12.73.74-17.69,1.55-16.94,2.76.72,1.16,27.81.67,29-.52h0ZM142.91,204.03c-2.69-1.7.3-3.03,8.98-4.03,6.21-.71,8.99-.64,10.9.27,3.08,1.48,3.05,2.99-.08,3.88-3.61,1.02-18.14.93-19.8-.12ZM159.26,203.36c6.32-.87,5.86-2.36-.72-2.36-8.24,0-15.49,1.16-13.1,2.09,2.49.98,7.9,1.08,13.82.27h0ZM100.09,195.35c-3.43-.75-2.08-2.74,2.39-3.54,9.33-1.66,18.43-.43,15.86,2.14-1.15,1.15-14.64,2.18-18.25,1.4h0ZM116.4,193c-.73-1.19-6.41-1.21-12-.06-3.42.71-2.8.84,4.31.94,5.31.07,8.09-.25,7.69-.89h0ZM79.35,192.55c-3.3-3.3-3.09-6.35.76-11.36l3.21-4.18h9.79c5.38,0,9.79.21,9.79.47,0,.67-12.13,14.78-13.97,16.24-2.54,2.02-6.92,1.49-9.58-1.17h0ZM129.07,192.25c-1.57-1.33-7.17-13-7.17-14.92,0-.18,3.74-.33,8.3-.33h8.3l1.77,4.91c1.61,4.47,1.63,5.18.23,7.88-2.36,4.56-7.64,5.69-11.44,2.46h0ZM181.5,182.41c-.76-1.99.06-3.41,1.99-3.41,2.04,0,3,3.01,1.31,4.09-1.98,1.26-2.6,1.13-3.29-.68h0ZM16.54,175.31c-1.13-1.13-.69-2.31.86-2.31.83,0,1.5.42,1.5.94,0,1.26-1.56,2.16-2.36,1.37ZM46.52,173.92c-5.27-4.15-2.3-12.92,4.38-12.92,3.34,0,7.02,3.04,6.96,5.75-.03,1.25-.46.97-1.53-.99-3.03-5.58-11.43-3.98-11.43,2.19s-2.35,6.05,58.07,6.05c35.64,0,54.93.35,54.93.99s-19.1.99-54.38.99c-53.42,0-54.42-.04-57-2.06h0ZM220.5,175.16c-.35-.56-.14-1.32.45-1.69,1.54-.95,2.53.35,1.25,1.63-.72.72-1.28.74-1.7.05h0ZM197.4,171c1-1.1,2.03-2,2.31-2s-.31.9-1.31,2-2.03,2-2.31,2,.31-.9,1.31-2ZM47.38,169.95c-.36-1.13-.09-2.72.6-3.55,1.46-1.76,5.07-1.49,5.7.42.36,1.1.08,1.1-1.7,0-1.79-1.11-2.28-1.1-3.02.08-2.32,3.72-.52,4.09,19.96,4.09h19.81l3.23-4.08,3.23-4.08-2.18-9.06c-1.2-4.98-2.05-9.17-1.9-9.31.67-.61,18.32,12.68,18.95,14.27,1.15,2.9.92,9.77-.36,11.05-.93.93-.03,1.2,4.07,1.2,5.92,0,5.87.19,2.04-8.47-1.6-3.63-3.71-5.52-13.54-12.16-6.4-4.33-13.38-9.5-15.5-11.5-5.44-5.12-5.3-8.94.8-20.86,5.73-11.2,16.15-22.34,22.51-24.05,8.11-2.18,12.9.88,15.36,9.81,2.51,9.12,2.81,9.51,10.95,14.04,4.25,2.37,7.83,4.17,7.95,4,.12-.17,5.39-6.83,11.7-14.81,6.32-7.98,12.56-15.96,13.87-17.75,2.39-3.26,4-4.15,4-2.2,0,1.34-31.91,41.95-32.96,41.95-.44,0-4.34-1.96-8.67-4.34l-7.87-4.34-3-9.04c-1.65-4.97-3.62-9.77-4.37-10.66-1.88-2.21-6.44-2.03-8.59.34-2.02,2.23-1.84,5.01.94,15.04l1.8,6.5-3.14,4.65c-1.73,2.55-3.13,5.03-3.11,5.5.02.47,4.3,3.75,9.51,7.29s10.24,7.27,11.17,8.3c.93,1.02,3.56,6.45,5.86,12.06l4.17,10.2,6.38.58c3.51.32-16.2.66-43.8.75-49.77.17-50.19.16-50.83-1.88ZM231.59,170.36c-.8-.8.1-2.36,1.37-2.36.52,0,.94.67.94,1.5,0,1.55-1.18,1.99-2.31.86h0ZM182.9,163.5c0-.83.45-1.5,1-1.5s1,.67,1,1.5-.45,1.5-1,1.5-1-.67-1-1.5ZM144.53,162.2c-.27-.44-.09-1.45.4-2.24.67-1.09,1.17-1.16,2.05-.29.64.63.85,1.64.48,2.24-.79,1.28-2.23,1.42-2.93.29ZM.07,159.34c.2-1.01,1.02-1.84,1.84-1.84,2.14,0,1.83,2.91-.35,3.33-1.34.26-1.74-.15-1.49-1.49ZM71.53,158.14c-2.15-2.37-1.12-5.14,1.91-5.14,2.75,0,4.22,3.37,2.42,5.55-1.58,1.9-2.31,1.83-4.33-.4h0ZM171.88,150.69c4.66-4.78,8.66-8.69,8.89-8.69.46,0-8.03,9.4-11.29,12.5-6.44,6.13-4.87,3.64,2.4-3.81h0ZM131.84,147.94c-2.26-2.26-2.39-7.97-.2-8.69.88-.29,1.07.44.66,2.51-1.07,5.36,4.46,8.26,8.1,4.24,2.13-2.36,3.5-2.57,3.5-.56s-3.96,4.56-7.22,4.56c-1.53,0-3.7-.93-4.84-2.06ZM19.9,140.62c0-.21.79-1,1.75-1.75,1.59-1.24,1.62-1.21.38.38-1.31,1.67-2.13,2.2-2.13,1.37ZM126.4,134.42c-5.5-3.04-10.49-6.06-11.09-6.72s-2.53-6.02-4.3-11.91c-3.35-11.16-3.27-13.74.5-15.19,3.41-1.31,5.8,1.85,8.7,11.52l2.82,9.39,9.93,5.3c8.89,4.74,9.93,5.59,9.93,8.05,0,3.28-1.64,5.16-4.45,5.12-1.13-.02-6.55-2.51-12.05-5.55h0ZM228.4,126.29c-4.95-4.11-11.47-9.08-14.5-11.05-8.3-5.38-16.45-11.76-27.24-21.3-5.36-4.74-13.46-11.24-18-14.44-14.06-9.93-26.12-19.19-29.19-22.41l-2.94-3.08h26.19c16.79,0,26.19-.36,26.19-1s-18.77-1-54.31-1c-53.28,0-54.35-.04-56.5-2.04-2.16-2.02-2.77-5.28-1.57-8.42,1.03-2.69,5.89-4.68,8.77-3.59,2.57.98,6.32,5.66,5.32,6.66-.3.3-1.11-.5-1.79-1.78-1.6-3.03-2.83-3.8-6.12-3.82-2.88-.02-5.81,3.11-5.81,6.21,0,.98.9,2.68,2,3.78,1.89,1.89,3.23,1.99,25.25,1.86,12.79-.08,34.72-.44,48.75-.81,23.07-.61,20.86-.69-23.21-.86l-48.71-.19-1.17-2.18c-.99-1.86-.84-2.45,1.06-3.99,1.69-1.37,2.68-1.56,4.13-.78,2.02,1.08,2.59,2.95.91,2.95-.55,0-1-.45-1-1s-.93-1-2.07-1c-1.57,0-1.99.54-1.75,2.25q.32,2.25,23.07,2.52c13.57.16,22.75-.11,22.75-.66,0-.51-2.92-3.02-6.5-5.57-3.58-2.55-6.5-5.03-6.5-5.51s2.14-1.57,4.75-2.43c18.92-6.2,39.89-6.53,57.75-.9,6.22,1.96,18.86,8.27,23.45,11.72,2.3,1.73,3.78,2.25,4.45,1.58,1.59-1.59,2.79-1.16,2.17.78-.4,1.27,1.19,3.5,5.52,7.75,7.37,7.23,13.73,15.9,17.56,23.97,1.57,3.3,3.3,6.34,3.85,6.76.55.42,8.57.71,17.83.66,9.26-.05,17.09.17,17.42.49.32.32-9.05.64-20.83.71-14.79.08-19.9.37-16.53.94,2.69.45,5.37,1.3,5.95,1.88.75.75-4.65,1.13-18.39,1.28l-19.45.21,18,.54,18,.54,1.67,8c1.67,8.02,2.33,28.48,1.01,31.63-.55,1.32-2.39.21-9.68-5.85h0ZM155.21,132.35c.96-.96,20.72-1.11,21.3-.16.28.45-4.55.81-10.72.81s-10.93-.29-10.58-.65h0ZM54.9,131.69c0-.17,1.46-1.63,3.25-3.25l3.25-2.94-2.94,3.25c-2.74,3.03-3.56,3.71-3.56,2.94ZM143.93,130.82c.05-1.82,3.86-6.26,4.68-5.45,1.13,1.13-1.16,6.09-2.98,6.44-.95.18-1.71-.26-1.7-.99h0ZM163.15,129.31c.96-.25,2.54-.25,3.5,0s.17.46-1.75.46-2.71-.21-1.75-.46ZM177.15,129.26c4.26-.19,11.24-.19,15.5,0s.78.34-7.75.34-12.01-.15-7.75-.34ZM39.9,128c0-.55.45-1,1-1s1,.45,1,1-.45,1-1,1-1-.45-1-1ZM180.9,116.62c0-.21.79-1,1.75-1.75,1.59-1.24,1.62-1.21.38.38-1.31,1.67-2.13,2.2-2.13,1.37ZM249.98,114.66c-.05-1.08-1.31-2.3-3.08-2.97-1.65-.62-3-1.39-3-1.71s1.8-2.34,4-4.48c2.2-2.15,4-3.45,4-2.89s-1.36,2.32-3.01,3.9l-3.01,2.89,2.66,2.12c1.54,1.23,2.42,2.72,2.09,3.55-.41,1.04-.59.92-.64-.41h0ZM132.9,102.18c-8.63-3.91-11.63-12.97-6.71-20.28,5.43-8.07,17.13-8.37,22.46-.57,3.02,4.42,3.07,11.71.1,15.88-3.32,4.67-11.12,7.11-15.85,4.97ZM31.78,98.25c1-1.86,13.26-13.8,16.62-16.2,1.1-.78-2.27,2.93-7.48,8.26-5.21,5.33-9.62,9.69-9.79,9.69s.12-.79.64-1.75h0ZM98.47,81.68c.28-.73,2.63-3.05,5.22-5.16l4.71-3.84-4.96,5.16c-5.33,5.55-5.74,5.86-4.97,3.84h0ZM248.9,69.62c0-.21.79-1,1.75-1.75,1.59-1.24,1.62-1.21.38.38-1.31,1.67-2.13,2.2-2.13,1.37ZM27.9,66.5c1.29-1.38,2.57-2.5,2.85-2.5s-.56,1.12-1.85,2.5-2.57,2.5-2.85,2.5.56-1.12,1.85-2.5ZM79.9,68.62c0-.21.79-1,1.75-1.75,1.59-1.24,1.62-1.21.38.38-1.31,1.67-2.13,2.2-2.13,1.37ZM187.9,29.06c0-1.07-1-2.64-2.22-3.5-2.51-1.76-1.66-2.1,1.29-.52,1.06.57,1.93,1.69,1.93,2.5,0,2.37,1.13,1.76,6.97-3.78l5.53-5.25-5.97,6.25c-3.28,3.44-6.32,6.25-6.75,6.25s-.78-.87-.78-1.94ZM97.9,26.5c1.29-1.38,2.57-2.5,2.85-2.5s-.56,1.12-1.85,2.5-2.57,2.5-2.85,2.5.56-1.12,1.85-2.5ZM67.9,22.5c2.99-3.02,5.66-5.5,5.93-5.5s-1.94,2.48-4.93,5.5-5.66,5.5-5.93,5.5,1.94-2.48,4.93-5.5ZM127.9,24.06c0-1.07-1-2.64-2.22-3.5-1.22-.86-1.71-1.56-1.07-1.56s2.02,1.1,3.08,2.45l1.93,2.45,2.89-3.04c1.59-1.67,3.79-3.5,4.89-4.07s-.23,1.27-2.96,4.09c-5.41,5.58-6.54,6.13-6.54,3.17ZM174.88,10.72c5.77-5.9,10.7-10.72,10.97-10.72s-1.8,2.36-4.59,5.25-6.38,6.6-7.98,8.25-4.25,4.11-5.89,5.47c-1.64,1.36,1.73-2.35,7.49-8.25h0Z"/>
    </g>
  </g>
</svg>