<?xml version="1.0" encoding="UTF-8"?>
<svg id="Layer_2" data-name="Layer 2" xmlns="http://www.w3.org/2000/svg" viewBox="0 0 130.24 165.78">
  <g id="svg1">
    <g id="g1">
      <path id="path5" d="M48.14,165.23c-3.93-1.05-4.34-4.37-2.98-24.13.71-10.29,1.47-19.01,1.69-19.37s2.76.01,5.65.84c2.89.82,6.05,1.48,7.03,1.47,1.63-.03,1.73.85,1.23,10.16-.3,5.6-.79,12.21-1.09,14.69-.29,2.47-.68,6.48-.85,8.9-.45,6.3-4.47,9.1-10.68,7.44h0ZM74.7,163.44c-1.94-1.94-2.45-3.48-2.45-7.39,0-5.13-1.59-23.23-2.55-28.9-.52-3.12-.41-3.25,2.76-3.25,1.82,0,4.76-.42,6.55-.93,2.35-.67,3.25-.61,3.26.25,0,.73.36.63.92-.25,1.07-1.7,1.77,1.75,2.51,12.43.27,3.85.79,11.31,1.16,16.57l.68,9.57-2.77,2.18c-3.63,2.85-7.02,2.76-10.05-.27h0ZM51.01,120.02c-3.7-.97-7.02-2.05-7.38-2.4s-.14-6.85.49-14.44c.62-7.59,1.38-16.94,1.69-20.79.95-11.96-1.19-5.04-2.48,7.97-1.15,11.72-2.05,14.08-4.93,13.02-.73-.27-2.03-.49-2.88-.49-1.34,0-1.48-1.75-1.06-13.25.41-11.23.9-14.39,3.24-20.75,1.52-4.12,2.85-9.53,2.95-12,.14-3.28,1.21-6.06,3.92-10.25,2.05-3.16,4.33-5.75,5.07-5.75,1.86,0,9.31,7.56,12.75,12.95l2.84,4.45v63.61l-3.75-.06c-2.06-.03-6.78-.85-10.48-1.81h0ZM57.24,104.99c0-1.04-8.02-2.07-9.5-1.22-.55.32.35.87,2,1.23,4.56.99,7.5.99,7.5,0h0ZM60.24,66.89c0-.55-2.25-1-5-1s-5,.45-5,1,2.25,1,5,1,5-.45,5-1ZM66.24,90.49c0-36.38-.22-35.34,9.42-44.98l5.38-5.38,4.6,4.95c2.53,2.72,4.64,5.26,4.68,5.63.04.37.18,2.92.31,5.67s.8,6.35,1.5,8c3.07,7.28,4.47,15.44,4.54,26.42l.07,11.42-2.63.71c-1.45.39-3.16.39-3.8-.01-.67-.41-1.74-6.17-2.49-13.43-1.21-11.64-1.88-14.67-2.97-13.53-.22.23.23,5.82,1.01,12.42,1.94,16.55,2.05,28.47.28,29.61-2.24,1.44-7.98,2.88-14.13,3.55l-5.75.63v-31.68ZM82.23,105c1.37-.38,2.02-.98,1.45-1.33-1.42-.88-9.44.28-9.44,1.36,0,1,4.35.99,7.99-.02h0ZM80.79,66.81c.31-.51-1.68-.92-4.49-.92s-5.06.41-5.06.92,2.02.92,4.49.92,4.75-.41,5.06-.92ZM36.28,108.96c-1.72-3.21-1.2-4.07,2.46-4.07,3.22,0,3.5.24,3.5,3,0,2.52-.39,3-2.46,3-1.41,0-2.91-.83-3.5-1.93ZM89.24,107.89c0-2.76.28-3,3.5-3,3.91,0,4.2.56,1.94,3.78-2.36,3.38-5.44,2.94-5.44-.78ZM119.32,103.03c-.05-.85-.71-1.12-1.77-.71-1.59.61-1.59.54,0-1.22,1.75-1.93,2.22-5.88.93-7.81-1.37-2.04-5.3-3.51-7.51-2.81-1.87.59-2.02.47-.97-.79.68-.82.94-1.78.58-2.14-.36-.36-.13-.66.51-.66s1.18-.79,1.21-1.75c.02-1.05.58-.5,1.39,1.35,1.13,2.59,3.25,4.4,5.15,4.4,1.12,0,.23-4.91-1.08-6-.83-.68-1.5-1.69-1.5-2.24,0-.59.58-.52,1.4.16,1.08.89,1.52.86,1.92-.13.4-1,.54-.99.6.08.07,1.16.34,1.16,1.81,0,1.64-1.3,1.64-1.23,0,1.34-2.2,3.44-2.33,7.23-.23,6.42.83-.32,1.5-.33,1.5-.04s-.67,1.22-1.5,2.04c-2.02,2.02-1.9,6.25.25,8.7,1.6,1.82,1.6,1.94.06,1.38-.93-.34-1.9-.08-2.17.58-.33.82-.51.77-.56-.16h0ZM112.26,98.64c0-1.51.43-2.75.98-2.75,1.26,0,1.26,2.04,0,4-.76,1.17-.97.89-.98-1.25ZM125.53,97.86c-.67-1.78-.96-2.98-.65-2.67s1.64.15,2.96-.35c1.51-.58,2.4-.55,2.4.06,0,.54-.79.98-1.75.99-1.5.01-1.53.16-.25.98.88.57,1.01.98.32.98-.65,0-1.32.74-1.5,1.62-.2,1.01-.77.4-1.53-1.63h0ZM125.94,88.25c.66-.27.91-1.23.56-2.14-.56-1.46-.45-1.48.95-.19,1.58,1.46.65,3.02-1.7,2.87-.55-.03-.46-.28.19-.55ZM6.24,84.13c0-.55.67-1.56,1.5-2.24,1.41-1.17,2.16-6,.93-6-1.82,0-4.43,2.35-4.43,3.98,0,1.05-.5,2.21-1.11,2.59-.74.46-.89-.01-.43-1.43.56-1.75.36-2-1.14-1.44-1.56.59-1.63.46-.51-.92,1.07-1.32,1.07-1.68,0-2.03-.72-.24-.17-.26,1.23-.05,5.52.82,9.05-6.65,5.22-11.03-1.67-1.9-1.67-1.97,0-1.36,1.06.39,1.76.15,1.77-.58.01-.84.29-.79.89.16.48.76,1.36,1.07,1.97.7s.35.62-.56,2.2c-.91,1.58-1.36,3.64-1,4.57.55,1.43.96,1.5,2.67.43,1.11-.69,2.43-2.39,2.94-3.77.7-1.9.94-2.06,1-.65.06,1.3.57,1.67,1.72,1.23,1.33-.51,1.42-.36.45.81-.93,1.12-.91,1.54.11,1.89.72.25.18.32-1.2.16s-3.4.37-4.5,1.19c-1.96,1.46-1.97,1.51-.09,2.9,1.05.78,3.08,1.2,4.5.93s2.01-.21,1.3.12c-1.06.49-1.06.89,0,2.19,1.1,1.36,1.04,1.49-.46.93-1.23-.46-1.77-.15-1.81,1.06-.04,1.18-.37.94-1.05-.75-1.05-2.64-2.61-3.99-4.64-4.01-1.77-.02-1.55,3.11.42,5.93.96,1.37,1.13,2.05.39,1.59-.76-.47-1.64-.23-2.16.58-.74,1.16-.88,1.16-.89,0-.01-1.11-.31-1.13-1.52-.13-.84.69-1.5.8-1.5.24h0ZM5.43,72.03c-.72-.46-2.52-.69-4-.52-1.48.17-1.87.07-.88-.23,1.44-.44,1.57-.83.61-1.99-.97-1.17-.89-1.32.46-.81,1.27.49,1.5.23.97-1.14-.47-1.22-.31-1.55.49-1.05.64.4,1.17,1.32,1.17,2.04s1.01,2.03,2.25,2.89c2.29,1.6,1.33,2.33-1.06.81h0ZM59.51,46.41c-3.68-1.6-7.26-6.8-7.27-10.56,0-2.17.66-2.72,4.51-3.75,4.81-1.29,15.35-1.46,19.49-.32,5.37,1.49,2.67,10.71-4.16,14.19-4.41,2.25-8.1,2.38-12.57.43h0ZM100.44,31.14c2.13-2.48,2.76-4.71,1.78-6.3-.69-1.12-1.22-1.03-2.91.5-1.13,1.03-2.06,2.47-2.06,3.21s-.44,1.35-.97,1.35-.71-.68-.39-1.51c.43-1.12.12-1.34-1.2-.83-1.29.49-1.56.33-.98-.6.47-.75.22-1.67-.59-2.23-.93-.64-.35-.75,1.81-.32,5.97,1.17,9.71-6.11,5.57-10.85-1.53-1.75-1.54-1.92-.12-1.41.9.33,2.13.09,2.75-.53.83-.83,1.12-.82,1.12.05,0,.69.72.91,1.75.53,1.67-.61,1.67-.54,0,1.36-4.14,4.73-.4,12.02,5.57,10.85,2.15-.42,2.74-.32,1.81.32-.81.56-1.05,1.48-.59,2.23.57.92.31,1.1-.94.62-1.41-.54-1.6-.27-1.06,1.46.45,1.42.31,1.89-.43,1.43-.61-.38-1.11-1.3-1.11-2.05,0-1.55-2.67-4.51-4.07-4.51-1.6,0-1.01,5.24.82,7.4,1.46,1.72,1.47,1.85.1.79-1.34-1.03-1.75-1.03-2.17.02-.41,1.01-.76.96-1.58-.21-.72-1.02-1.07-1.1-1.08-.25,0,.69-.54,1.25-1.17,1.25-.74,0-.62-.63.35-1.75h0ZM49.57,30.29c-.34-.88-.19-1.89.33-2.25.52-.36,1.74-2.75,2.7-5.32.96-2.57,2.39-5.2,3.18-5.85,1.02-.85,1.29-2.61.94-6.25-.27-2.79-.19-4.78.16-4.42s1.9-.09,3.42-1c2.58-1.53,2.96-1.52,5.36.05,1.42.93,2.58,2.56,2.58,3.63s1.74,3.66,3.86,5.76,4.65,5.38,5.62,7.29,2.46,4.26,3.31,5.24c2.69,3.06.2,4.3-5.85,2.9-6.8-1.57-11.62-1.48-17.54.31-6.23,1.89-7.33,1.88-8.09-.09h0ZM28.49,20.29c1.79-2.1,2.43-7.4.9-7.4-1.18,0-4.15,3.42-4.15,4.77,0,.61-.5,1.42-1.11,1.8-.74.46-.89-.01-.43-1.43.55-1.72.35-1.99-1.06-1.46-1.25.48-1.51.3-.94-.62.47-.75.22-1.67-.59-2.23-.93-.64-.35-.75,1.81-.32,5.97,1.17,9.71-6.11,5.57-10.85-1.53-1.75-1.54-1.92-.12-1.41.9.33,2.13.09,2.75-.53.83-.83,1.12-.82,1.12.05,0,.69.72.91,1.75.53,1.67-.61,1.67-.54,0,1.36-3.88,4.44-.46,11.91,5.07,11.06,1.48-.23,2.1-.22,1.38.02-1.07.35-1.07.71,0,2.03,1.12,1.38,1.05,1.51-.56.91-1.4-.53-1.72-.33-1.28.81.32.83.14,1.51-.39,1.51s-.97-.64-.97-1.43c0-1.6-2.65-4.57-4.07-4.57-1.56,0-1.03,5.23.73,7.17.99,1.09,1.19,1.83.5,1.83-.64,0-1.16-.56-1.17-1.25-.01-.85-.36-.77-1.08.25-.83,1.17-1.18,1.21-1.58.21-.42-1.05-.83-1.05-2.17-.02-1.38,1.06-1.36.93.1-.79h0ZM93.71,19.29c.83-.6,1.21-1.39.85-1.75s-.08-.65.62-.65,1.02-.65.7-1.5c-.32-.83-.14-1.5.39-1.5s.97.87.97,1.94.84,2.53,1.87,3.25c1.66,1.16,1.38,1.31-2.52,1.31-3.43,0-4.06-.24-2.88-1.1ZM107.38,19.08c1.03-.72,1.87-1.93,1.87-2.69s.53-1.71,1.17-2.11c.79-.49.96-.18.53.94-.44,1.14-.1,1.69,1.08,1.74,1.13.05,1.27.26.42.6-1.01.4-.95.78.27,1.67,1.27.93.73,1.15-2.81,1.15-3.89,0-4.18-.15-2.52-1.31h0ZM23.74,8.89c-2.2-.39-3.16-.78-2.13-.86,1.56-.12,1.66-.4.61-1.66-1.06-1.27-.99-1.42.39-.89,1.23.47,1.49.22,1.03-.98-.34-.89-.12-1.61.49-1.61s1.11.87,1.11,1.94,1,2.64,2.22,3.5,1.78,1.49,1.25,1.41-2.77-.46-4.97-.86ZM34.99,8.46c1.24-.92,2.25-2.3,2.25-3.06s.44-1.66.99-2c.59-.36.72.09.33,1.11-.52,1.36-.28,1.58,1.15,1.03,1.49-.57,1.6-.44.62.74-.96,1.15-.84,1.53.61,1.91,1.02.26.42.52-1.37.58-1.74.06-3.99.4-5,.74-1.37.47-1.26.2.42-1.06h0Z"/>
    </g>
  </g>
</svg>