<?xml version="1.0" encoding="UTF-8"?>
<svg id="Layer_2" data-name="Layer 2" xmlns="http://www.w3.org/2000/svg" viewBox="0 0 202.1 237.82">
  <defs>
    <style>
      .cls-1 {
        fill: #010101;
      }
    </style>
  </defs>
  <g id="Layer_1-2" data-name="Layer 1">
    <path class="cls-1" d="M151.1,82.02c0-12.16.35-18.4,1-18,.6.37,1,7.49,1,18s-.4,17.63-1,18c-.65.4-1-5.84-1-18Z"/>
    <path class="cls-1" d="M124.1,76.75c0-1.44,16.93-17.63,17.67-16.89.4.4-3.06,4.54-7.7,9.2-7.92,7.96-9.97,9.54-9.97,7.7h0Z"/>
    <path class="cls-1" d="M169.71,68.87c-4.75-4.76-8.38-8.9-8.08-9.2.3-.3,4.69,3.59,9.76,8.65,5.06,5.06,8.7,9.2,8.08,9.2s-5.01-3.89-9.76-8.65h0Z"/>
    <path class="cls-1" d="M140.96,76.05c-.84-.84,4.2-13.53,5.37-13.53,1.05,0,.32,2.6-2.62,9.33-1.16,2.66-2.4,4.55-2.75,4.19h0Z"/>
    <path class="cls-1" d="M159.57,71.04c-1.41-3.18-2.42-6.52-2.24-7.4.18-.89,1.62,1.43,3.2,5.15,1.59,3.72,2.59,7.05,2.24,7.4-.35.35-1.79-1.96-3.2-5.15Z"/>
    <path class="cls-1" d="M126.29,60.47c.21-.64,3.04-2.24,6.27-3.56,6.72-2.73,6.54-2.69,6.54-1.49,0,.5-1.24,1.35-2.75,1.9s-4.48,1.74-6.6,2.65c-2.49,1.07-3.71,1.24-3.46.49h0Z"/>
    <path class="cls-1" d="M171.1,58.85c-6.05-2.75-6.57-3.1-5.84-3.83s12.84,4.65,12.84,5.66c0,1.19-.83.98-7-1.83h0Z"/>
    <path class="cls-1" d="M148.35,57.98c-8.24-3.46-6.63-15.31,2.3-16.99,7.17-1.35,12.52,6.62,9.01,13.4-.89,1.72-1.72,3.12-1.85,3.12s-1.61.4-3.3.88c-2.09.6-4.06.47-6.16-.42Z"/>
    <path class="cls-1" d="M157.35,54.37c2.38-2.81,2.2-6.74-.42-9.53-5.45-5.8-14.85.37-11.8,7.75,2.11,5.09,8.62,6.04,12.22,1.78h0Z"/>
    <path class="cls-1" d="M101.6,49.52c.37-.61,7.68-1,18.56-1s17.94.37,17.94,1-6.85,1-18.56,1-18.34-.35-17.94-1Z"/>
    <path class="cls-1" d="M166.1,49.52c0-.63,6.67-1,18-1s18,.37,18,1-6.67,1-18,1-18-.37-18-1Z"/>
    <path class="cls-1" d="M132.35,42.82c-3.44-1.38-6.25-2.96-6.25-3.51s.56-.78,1.25-.5,3.28,1.29,5.75,2.26,4.92,2.13,5.43,2.59c2.08,1.85-.27,1.54-6.18-.84h0Z"/>
    <path class="cls-1" d="M164.63,44.71c-.57-.57,10.88-6.19,12.61-6.19.48,0,.86.37.86.83,0,1.08-12.7,6.13-13.48,5.36Z"/>
    <path class="cls-1" d="M132.35,31.73c-4.54-4.71-8.25-9.03-8.25-9.62s4.05,2.97,9,7.9c8.29,8.25,10.22,10.69,8.25,10.39-.41-.06-4.46-3.97-9-8.67Z"/>
    <path class="cls-1" d="M161.78,39.8c-.32-.51,3.4-4.88,8.25-9.71,4.85-4.83,9.08-8.37,9.4-7.86s-3.4,4.88-8.25,9.71c-4.85,4.83-9.08,8.37-9.4,7.86Z"/>
    <path class="cls-1" d="M143.31,31.52c-1.66-3.58-2.74-6.94-2.41-7.48.75-1.23,6.46,11.26,5.86,12.83-.24.63-1.79-1.78-3.45-5.35Z"/>
    <path class="cls-1" d="M157.19,36.56c-.12-2.03,4.24-13.04,5.16-13.04.42,0,.73.56.71,1.25-.08,1.98-5.77,13.42-5.86,11.79h0Z"/>
    <path class="cls-1" d="M151.1,17.46c0-11.78.35-17.84,1-17.44.6.37,1,7.51,1,18.06s-.37,17.44-1,17.44-1-6.69-1-18.06Z"/>
    <path class="cls-1" d="M87.24,237.49c-1.33-.33-3.26-1.73-4.31-3.13-1.88-2.51-1.86-2.73,1.86-22.75l3.75-20.21-6.39-6.45c-3.52-3.55-6.58-6.26-6.81-6.03s.55,3.62,1.74,7.53c2.29,7.53,2.14,9.71-.81,12.38-1.01.91-10.28,4.08-20.6,7.04-15.59,4.47-19.26,5.21-21.67,4.37-3.25-1.13-4.85-3.48-4.85-7.12,0-4.73,2.83-6.46,17.39-10.63,7.64-2.19,14.1-4.19,14.36-4.46s-1.17-5.7-3.18-12.09l-3.66-11.61,5.05-19.11c2.78-10.51,4.89-19.27,4.69-19.46-.2-.2-9.98-4.22-21.75-8.95-11.77-4.73-21.96-9.05-22.65-9.6-1.87-1.51-1.51-5.22.71-7.22,1.89-1.71,2.84-1.41,28.03,8.75,19.88,8.02,26.58,11.16,28.21,13.24,4.1,5.21,11.67,6.81,18.56,3.93,3.33-1.39,5.89-1.39,26.22.04,12.39.87,23.52,1.79,24.74,2.06,4.2.9,5.25,7.47,1.43,8.96-.91.36-12.55-.15-25.87-1.13-13.32-.97-24.48-1.52-24.79-1.2s-2.51,7.99-4.87,17.06l-4.3,16.49,8.35,8.5c7.15,7.28,8.35,8.98,8.35,11.89,0,6.29-7.9,45.12-9.55,46.94-1.95,2.15-4.21,2.77-7.36,1.99h0Z"/>
    <path class="cls-1" d="M19.9,141.71c4.54-.19,11.96-.19,16.5,0,4.54.19.83.34-8.25.34s-12.79-.15-8.25-.34Z"/>
    <path class="cls-1" d="M2.95,138.7c6.77-.17,17.57-.17,24,0,6.43.17.89.32-12.31.32-13.2,0-18.46-.14-11.69-.32h0Z"/>
    <path class="cls-1" d="M26.45,135.71c4.84-.18,12.49-.18,17,0,4.51.18.55.34-8.8.33-9.35,0-13.04-.15-8.2-.34h0Z"/>
    <path class="cls-1" d="M83.48,125.36c-6.11-1.79-10.53-10.02-8.88-16.57.86-3.43,6.47-9.04,9.9-9.9,4.45-1.12,9.77.47,13.25,3.95,10.04,10.04-.44,26.56-14.27,22.51Z"/>
    <path class="cls-1" d="M94.24,119.73c3.5-2.07,3.92-4.53.65-3.86-1.24.26-4.94.76-8.23,1.12l-5.98.65,2.34,1.9c2.91,2.36,7.41,2.43,11.22.18Z"/>
    <path class="cls-1" d="M68.4,83.73c-1.79-.22-3.25-.88-3.25-1.47,0-.67,1.48-.87,3.94-.54,3.05.41,4.33.1,5.65-1.37.94-1.04,2.64-1.9,3.77-1.9,1.76,0,1.56.43-1.4,2.96-1.9,1.63-3.91,2.91-4.46,2.84s-2.46-.3-4.25-.52h0Z"/>
    <path class="cls-1" d="M53.16,76.29c-1.37-.52-3.31-.74-4.31-.47-1.49.39-1.6.21-.63-.96.81-.97,2.23-1.25,4.37-.84,2.23.42,3.56.13,4.48-.98.72-.87,2.49-1.54,3.94-1.5,1.53.05,2,.31,1.13.62-.83.3-2.62,1.57-4,2.82-2.02,1.84-2.97,2.09-4.99,1.32h0Z"/>
    <path class="cls-1" d="M70.65,63.49c-3.1-.52-3.6-.86-2.22-1.48.98-.44,3.07-.54,4.64-.23,2.07.41,3.34.04,4.62-1.38,1.84-2.03,4.46-2.63,4.46-1.02,0,.51-.86,1.21-1.91,1.54s-2.16,1.26-2.47,2.07c-.59,1.55-.84,1.56-7.12.5Z"/>
  </g>
</svg>