<?xml version="1.0" encoding="UTF-8"?>
<svg id="Layer_2" data-name="Layer 2" xmlns="http://www.w3.org/2000/svg" viewBox="0 0 346.88 309.86">
  <g id="svg1">
    <g id="g1">
      <path id="path5" d="M43.65,309.31c-2.96-.77-1.96-2.07,3-3.89,2.61-.96,5.06-2.01,5.45-2.33.38-.32-4.06-.68-9.88-.8-10.23-.21-12.35-.58-11.02-1.91,1.98-1.98,42.02-3.29,43.18-1.41.33.53-.31,1.87-1.43,2.98l-2.02,2.02,2.23.45c1.23.25,5.17.68,8.75.96,13.29,1.03,13.41,3.1.24,3.97-10.73.71-35.74.69-38.5-.03h0ZM75.9,308.31c11.38-.67,12.26-1.98,1.5-2.23-2.75-.06-5.66-.53-6.46-1.04-1.26-.8-1.23-1.18.25-2.81.94-1.04,1.71-2.19,1.71-2.56,0-.9-17.39-.84-28,.08l-8.5.74,9.76.5c5.37.27,9.79.94,9.82,1.47.04.54-2.78,1.92-6.26,3.08-3.81,1.27-5.73,2.34-4.82,2.7,2.12.83,17.45.86,31,.05h0ZM175.65,309.36c-3.6-.64-3.49-2.49.27-4.71,1.66-.98,2.8-2.13,2.54-2.56s-7.77-1.09-16.67-1.47c-16.85-.72-21.19-1.56-14.38-2.78,6.04-1.08,76.28-.99,76.96.1.88,1.42-.98,2.16-6.98,2.78-3.01.31-5.47.88-5.47,1.28s5.96.97,13.25,1.28c12.8.55,18.75,1.69,18.75,3.59,0,.5-1.91,1.18-4.25,1.5-5.59.77-60.45,1.63-64,1h0ZM236.86,307.38c9.17-1.17.87-2.66-17.62-3.16-10.09-.28-18.34-.85-18.34-1.27s3.26-1.27,7.25-1.89c15.72-2.44,13-2.85-18.75-2.89-18.7-.02-31.17.33-30,.83,1.1.47,5.91.89,10.69.93,10.22.08,11.65,1.17,6.82,5.2l-3.32,2.78,7.41.3c10.74.43,50.63-.16,55.87-.82h0ZM108.9,308.16c-5.23-.77-6.09-3.1-1.59-4.3,5.38-1.44,23.94-2.12,26.84-.99,3.43,1.34,3.51,2.88.24,4.13-3.3,1.26-19.76,2-25.49,1.16h0ZM131.65,306.41c4.11-.64,4.18-2.05.14-2.94-4.6-1.01-25.89,1.1-25.89,2.57s16.88,1.74,25.75.37ZM142.9,308.05c-2.85-1.99,1.1-3.02,11.69-3.03,9.63-.01,12.94.85,10.08,2.64-2,1.25-20.07,1.58-21.77.4ZM161.4,307c1.3-.56-1.49-.88-8-.91-6.8-.04-9.52.25-8.5.91,1.83,1.19,13.74,1.19,16.5,0ZM288.01,307.09c-1.12-.71-1.01-1.08.58-1.93,2.45-1.31,21.18-2.66,24.7-1.78,3.87.97,3.21,3.26-1.14,3.97-5.6.93-22.55.74-24.14-.27ZM311.4,306.1c2.64-.58,2.76-.75,1.03-1.43-2.64-1.04-23.1.35-21.36,1.46,1.53.97,15.88.96,20.33-.02h0ZM244.65,301.32c-1.51-.25-2.75-.8-2.75-1.24,0-1.26,12.12-2.06,31-2.06,15.95,0,21.58.73,19.78,2.53-.76.76-43.85,1.44-48.03.76h0ZM286.82,299.37c.23-.2-6.75-.34-15.5-.3-10.09.04-15.18.39-13.92.95,1.82.8,28.44.21,29.42-.66ZM319.44,301.07c-.68-1.11.89-2.3,1.82-1.38.95.95.77,2.31-.3,2.31-.52,0-1.2-.42-1.52-.93h0ZM99.59,299.3c-6.42-1.66,8.53-5.23,16.03-3.82,4.05.76,3.88,2.75-.31,3.66-3.42.74-13.12.84-15.72.17ZM114.23,298c2.1,0,2.75-.33,2.05-1.02-.65-.65-3.76-.76-8.45-.31-5.6.53-6.81.89-4.93,1.46,1.38.41,3.79.55,5.38.31,1.58-.24,4.26-.44,5.95-.44ZM78.97,296.37c-2.87-3.65-2.6-6.32,1.14-11.18l3.21-4.18h9.79c5.38,0,9.79.25,9.79.55,0,.75-11.83,14.63-13.8,16.2-2.8,2.22-7.83,1.53-10.12-1.38h0ZM129.07,296.25c-1.57-1.33-7.17-13-7.17-14.92,0-.18,3.63-.33,8.06-.33h8.06l1.97,4.46c1.24,2.81,1.74,5.41,1.33,7.02-1.29,5.12-8.17,7.24-12.24,3.77h0ZM271.9,288c0-.55.45-1,1-1s1,.45,1,1-.45,1-1,1-1-.45-1-1ZM181.49,286.38c-.36-.94-.22-2.15.31-2.68,1.44-1.45,4.3.04,3.91,2.04-.45,2.34-3.4,2.79-4.22.65ZM166.9,284.5c1.29-1.38,2.57-2.5,2.85-2.5s-.56,1.12-1.85,2.5-2.57,2.5-2.85,2.5.56-1.12,1.85-2.5ZM304.5,283.16c-.35-.56-.14-1.32.45-1.69,1.54-.95,2.53.35,1.25,1.63-.72.72-1.28.74-1.7.05h0ZM15.9,278.58c0-.87.71-1.58,1.58-1.58s1.41.53,1.19,1.19c-.62,1.85-2.77,2.16-2.77.4ZM46.53,277.93c-4.88-3.84-2.23-12.93,3.77-12.93,2.93,0,7.61,3.6,7.56,5.82-.03,1.13-.53.78-1.53-1.06-3.72-6.86-12.95-2.94-11.04,4.68,1.1,4.4,3.59,4.62,46.61,4.21,22.27-.21,48.59-.08,58.49.31,12.58.49.06.75-41.62.87-58.93.17-59.65.15-62.25-1.9h0ZM220.59,279.36c-.8-.8.1-2.36,1.37-2.36.52,0,.94.67.94,1.5,0,1.55-1.18,1.99-2.31.86ZM51.2,276.21c-3.77-.39-5.38-3.56-3.01-5.92,1.6-1.6,5.71-.95,5.71.9,0,.66-.57.58-1.5-.19-1.2-.99-1.81-.99-3.03.03-2.44,2.02-1.16,3.43,3.61,3.97,2.43.27,3.75.73,2.92,1.02-.82.29-2.94.37-4.7.19h0ZM263.9,274.5c1.29-1.38,2.57-2.5,2.85-2.5s-.56,1.12-1.85,2.5-2.57,2.5-2.85,2.5.56-1.12,1.85-2.5ZM73.07,275.25l15.67-.3,3.08-3.51c3.62-4.12,3.65-4.63,1.08-14.44-1.08-4.12-1.97-7.82-1.98-8.21-.04-1.65,18.83,12.5,19.37,14.53.99,3.68.68,9.22-.59,10.48-.93.93-.03,1.2,4.07,1.2,5.01,0,5.23-.11,4.56-2.25-2.89-9.14-3.87-10.22-17.74-19.59-15.3-10.34-17.68-12.79-17.68-18.18,0-6.57,7.25-19.36,15.93-28.11,4.16-4.2,8.22-7.83,9.02-8.07,1.16-.35.89-1.4-1.34-5.2-1.53-2.62-2.52-5.03-2.19-5.37.89-.89,2.32.82,6.59,7.91l3.83,6.36-2.8.75c-5.69,1.52-6.08,4.09-2.57,16.75l1.8,6.5-3.14,4.95c-1.73,2.72-3.14,5.23-3.14,5.57s4.45,3.63,9.88,7.3c5.43,3.68,10.49,7.42,11.23,8.31.74.9,3.22,6.18,5.5,11.75l4.14,10.12,10.88.55c5.98.3-11.62.54-39.12.53-27.5-.01-42.95-.16-34.33-.33h0ZM198.4,274c1-1.1,2.04-2,2.31-2s-.31.9-1.31,2c-1,1.1-2.04,2-2.31,2s.31-.9,1.31-2ZM231.9,273.44c0-.86.45-1.28,1-.94.55.34,1,1.04,1,1.56s-.45.94-1,.94-1-.7-1-1.56ZM182.9,267.5c0-.83.45-1.5,1-1.5s1,.67,1,1.5-.45,1.5-1,1.5-1-.67-1-1.5ZM144.9,264.92c0-2.44,2.34-2.09,2.82.42.19.99-.32,1.67-1.25,1.67s-1.57-.86-1.57-2.08ZM.07,263.34c.19-1.01,1.02-1.84,1.84-1.84,2.14,0,1.83,2.91-.35,3.33-1.34.26-1.74-.15-1.49-1.49ZM71.37,261.97c-1.69-1.86-1.71-2.16-.23-3.64,2.93-2.93,7.39,1,4.75,4.18-1.63,1.96-2.32,1.88-4.52-.54ZM171.88,254.61c8.13-8.25,11.46-11.11,7.43-6.37-5.08,5.98-12.11,13.03-13.91,13.95-1.1.57,1.82-2.85,6.48-7.58h0ZM141.15,248.8c-3.62-1.78-2.6-2.81,2.15-2.16,3.77.52,4.56.31,5.5-1.45.76-1.42.79-2.88.1-4.69-1.22-3.21-1.27-4.5-.16-4.5s3.16,4.55,3.16,6.94c0,4.58-6.33,8.04-10.75,5.87ZM228.75,244.87c-5.25-1.92-5.87-10.19-.96-12.81,4.54-2.43,11.17.48,11.08,4.88-.02,1.16-.31,1.05-1.12-.44-3.64-6.65-11.85-5.43-11.85,1.76,0,5.94-2,5.74,58.07,5.74,35.95,0,54.93.35,54.93,1,0,1.34-106.49,1.21-110.15-.13ZM126.55,238.56c-5.42-2.94-10.43-5.96-11.14-6.7-.7-.75-2.7-6.2-4.43-12.11-3.55-12.11-3.22-14.75,1.83-14.75,3.76,0,4.37.94,7.44,11.4,1.44,4.9,2.73,8.99,2.88,9.09.15.1,3.87,2.13,8.27,4.5,4.4,2.37,8.79,4.99,9.75,5.81,3.36,2.89,1.59,8.24-2.7,8.15-1.13-.03-6.48-2.45-11.9-5.39h0ZM228.37,240.94c-.36-.58-.37-2.18-.02-3.56.5-2,1.16-2.44,3.27-2.19,1.45.17,2.86.99,3.13,1.81.42,1.28.25,1.3-1.16.14-2.09-1.72-4.93-.7-4.49,1.61.31,1.63,3.71,1.79,50.32,2.27l49.99.51-50.19.24c-34.42.16-50.4-.1-50.84-.82ZM39.9,232c0-.55.45-1,1-1s1,.45,1,1-.45,1-1,1-1-.45-1-1ZM35.9,220.62c0-13.45,4.71-30.23,12.17-43.35,4.88-8.59,17.27-22.28,24.77-27.38,3.48-2.37,4.84-3.89,4.48-5.06-.63-2.09,1.39-3.49,2.15-1.5.46,1.19,2.14.73,8.82-2.41,19.48-9.13,41.05-10.8,62.41-4.84,8.26,2.31,20.19,7.4,20.19,8.63,0,.45-2.81,2.34-6.25,4.21-5.91,3.21-12.45,7.4-26.25,16.8-3.3,2.25-11.98,7.28-19.29,11.19-7.31,3.9-20.79,12.07-29.96,18.15-9.17,6.08-20.07,12.67-24.21,14.65-7.13,3.4-9.42,4.75-23.29,13.64l-5.75,3.69v-6.44ZM126.05,225.27c-1.7-1.41-5.78-11.27-4.66-11.27.59,0,7.57,12.28,7.2,12.66-.22.22-1.36-.4-2.53-1.38ZM182.4,219c1-1.1,2.04-2,2.31-2s-.31.9-1.31,2c-1,1.1-2.04,2-2.31,2s.31-.9,1.31-2ZM120.05,206.92c-2.94-4.98-5.19-9.21-5-9.4.86-.86,6.84,2.54,8.17,4.65,1.26,2,3.41,13.85,2.5,13.82-.18,0-2.73-4.09-5.68-9.06ZM153.9,211.62c0-.21.79-1,1.75-1.75,1.59-1.24,1.62-1.21.38.38-1.31,1.67-2.13,2.2-2.13,1.37ZM130.4,205.01c-8.75-5.76-8.39-18.91.63-23.58,9.36-4.84,20.28,1.7,20.12,12.06-.04,2.52-.81,5.72-1.71,7.1-4.01,6.12-13.21,8.26-19.04,4.43ZM281.37,198.22c3.28-3.42,6.17-6.22,6.41-6.22.92,0-6.32,7.66-9.88,10.47-1.37,1.08.19-.83,3.47-4.25ZM200.06,194.5c.67-.67,58.96-.71,59.63-.04.3.3-13.11.54-29.8.54s-30.11-.22-29.84-.5ZM265.37,190.25l23.97-.29,3.52-3.23c2.13-1.96,2.64-2.22,1.28-.67-1.23,1.41-2.24,2.86-2.24,3.22s6.86.8,15.25.96c8.39.17-2.97.3-25.25.3-22.28,0-29.71-.14-16.53-.3h0ZM271.82,165.74l10.42-10.6-4.14-.32-4.14-.32,11.33-11.75c6.23-6.46,11.79-11.75,12.34-11.75,1.43,0,10.26,3.98,10.26,4.62,0,.29-3.67,3.98-8.17,8.2l-8.17,7.67,4.76.5,4.76.5-17.35,10.43c-9.54,5.73-18.47,11.1-19.85,11.92-1.38.82,2.19-3.28,7.92-9.11h0ZM291.29,154.19c-1.87-.17-3.39-.53-3.39-.79s3.94-4.24,8.75-8.83l8.75-8.35-3.78-1.81-3.78-1.81-10,9.95-10,9.95,4.12.5,4.12.5-6.09,6c-3.35,3.3-6.09,6.32-6.09,6.7,0,.39,4.68-2.09,10.39-5.5,10-5.97,10.27-6.21,7-6.51h0ZM26.9,171.62c0-.21.79-1,1.75-1.75,1.59-1.24,1.62-1.21.38.38-1.31,1.67-2.13,2.2-2.13,1.37ZM182.15,150.32c8.66-8.71,15.75-16.19,15.75-16.61s-2.93-.47-6.5-.1c-3.57.37-6.5.28-6.5-.2s3.03-3.91,6.72-7.64,6.09-6.78,5.31-6.78-2.46.99-3.75,2.2c-3.02,2.84-8.61,2.79-11.69-.1-2.04-1.92-3.37-2.09-15.67-2.06-9.76.03-14.12.43-15.94,1.46-3.23,1.84-9.94,1.88-14.73.08-2.83-1.06-12.29-1.59-37.77-2.12-29.79-.61-47.69-1.61-43.75-2.45.69-.15,1.7-.38,2.25-.52s2.57-.31,4.5-.38c3.18-.11,3.5-.39,3.5-3.09,0-3,2.66-5.43,5.27-4.83.68.16,2.3-.77,3.6-2.07,1.8-1.8,3.1-2.24,5.51-1.85,3.83.62,6.99-1.62,8.01-5.69,1.04-4.16,5.7-8.33,10.21-9.17,2.15-.39,5.23-1.82,6.84-3.17,3.85-3.21,6.92-4.32,12.28-4.43,3.64-.07,4.27-.36,3.7-1.71-5.03-11.89,5.99-24.51,18.48-21.15,4.19,1.13,9.66,6.45,10.64,10.35.42,1.69,1.74,2.6,5,3.48,5.96,1.59,12.03,7.25,14.13,13.16,1.65,4.64,1.73,4.7,4.25,3.39,3.43-1.79,7.5-1.7,11.27.25,2.9,1.5,3.17,1.49,4.12-.21,1.95-3.49,6.95-7.21,11.35-8.44,7.91-2.21,16.46,1.68,20.17,9.18,1.95,3.94,10.88,12.48,11.94,11.42.71-.71-2.65-5.6-6.03-8.78-1.6-1.5-2.75-3.48-2.57-4.39.5-2.56,5.06-5.47,9.51-6.07l4.01-.54-.46-4.78c-.42-4.33-.15-5.12,2.91-8.45,6.22-6.79,16.08-5.19,19.8,3.22.79,1.78,2.05,3.23,2.8,3.23,2.07,0,7.55,3.04,9.5,5.28.95,1.09,2.26,3.44,2.9,5.21,1.13,3.12,1.28,3.19,4.59,2.17,2.49-.76,4.28-.73,6.57.13,2.85,1.07,3.33.96,5.17-1.22,6.65-7.88,17.84-7.01,23.03,1.8,1.33,2.27,3.3,4.66,4.37,5.32s2.47,2.79,3.12,4.74c.9,2.72,1.9,3.73,4.34,4.36,2.45.63,3.25,1.44,3.49,3.51.28,2.42.73,2.7,4.5,2.79l4.18.1-3.5.78c-1.93.43-11.27,1.04-20.77,1.35-13.92.46-17.58.87-18.86,2.15-1.06,1.06-3.06,1.51-6.02,1.36-3.8-.2-4.88.22-7.62,2.96l-3.19,3.19h6.23c5.88,0,8.06,1.09,4.73,2.36-.83.32-11.29,6.52-23.25,13.78s-22.87,13.88-24.25,14.7,3.79-4.88,11.49-12.67l13.99-14.17h-12.92l6.44-6.5c5.86-5.91,6.21-6.5,3.92-6.5-1.39,0-3.02.5-3.62,1.1-.66.66-3.04.89-5.95.57-8.34-.91-11.26-1.82-11.85-3.69-.84-2.64-3.23-4.3-5.14-3.56-1.48.57-1.42.88.57,2.73,1.6,1.49,2.07,2.76,1.64,4.47-.55,2.2-.3,2.39,3.17,2.4,2.07,0,4.36.39,5.09.85,1.56.99-7.94,2.13-17.75,2.13h-6.63l-5.89,5.95-5.89,5.95,7.42.3,7.42.3-16,9.62c-8.8,5.29-22.07,13.31-29.5,17.83l-13.5,8.21,15.75-15.84ZM199.73,144.01c10.54-6.32,19.17-11.84,19.17-12.28s-2.7-.5-6-.15-6,.36-6,.02,6.17-6.63,13.71-13.97l13.71-13.35-4.62-2.05c-2.54-1.12-5.46-2.31-6.48-2.63-1.43-.45-5.68,3.25-18.34,16l-16.48,16.59,7.47-.58,7.47-.58-12.47,12.6c-6.86,6.93-11.98,12.43-11.39,12.23s9.71-5.53,20.25-11.85h0ZM267.25,132.25l16.15-9.75-5.43-.31-5.43-.31,11.87-11.9,11.87-11.9-4.77-2.05c-2.62-1.13-5.14-2.05-5.59-2.05s-6.99,6.19-14.53,13.75l-13.71,13.75,5.79.31,5.79.31-9.91,9.94c-5.45,5.47-9.53,9.94-9.07,9.94s8.1-4.39,16.98-9.75h0ZM316.4,160c1-1.1,2.04-2,2.31-2s-.31.9-1.31,2c-1,1.1-2.04,2-2.31,2s.31-.9,1.31-2ZM49.4,139c3.27-3.3,6.16-6,6.44-6s-2.17,2.7-5.44,6-6.16,6-6.44,6,2.17-2.7,5.44-6ZM62.9,134.5c1.87-1.93,3.62-3.5,3.89-3.5s-1.03,1.57-2.89,3.5-3.62,3.5-3.89,3.5,1.03-1.57,2.89-3.5ZM75.9,128.5c3.54-3.57,6.67-6.5,6.94-6.5s-2.4,2.93-5.94,6.5-6.67,6.5-6.94,6.5,2.4-2.93,5.94-6.5ZM229.9,133.32c0-.56,1.01-1.87,2.25-2.92l2.25-1.9-1.99,2.5c-1.09,1.38-2.11,2.69-2.25,2.92-.14.23-.26-.04-.26-.6h0ZM243.9,127.5c2.99-3.02,5.66-5.5,5.93-5.5s-1.94,2.48-4.93,5.5c-2.99,3.02-5.66,5.5-5.93,5.5s1.94-2.48,4.93-5.5ZM61.4,127c2.71-2.75,5.15-5,5.42-5s-1.72,2.25-4.42,5-5.15,5-5.42,5,1.72-2.25,4.42-5ZM97.4,129c1-1.1,2.04-2,2.31-2s-.31.9-1.31,2c-1,1.1-2.04,2-2.31,2s.31-.9,1.31-2ZM67.9,129.62c0-.21.79-1,1.75-1.75,1.59-1.24,1.62-1.21.38.38-1.31,1.67-2.13,2.2-2.13,1.37ZM87.4,126c2.15-2.2,4.13-4,4.41-4s-1.26,1.8-3.41,4-4.13,4-4.41,4,1.26-1.8,3.41-4ZM144.9,129.69c0-.17,1.46-1.63,3.25-3.25l3.25-2.94-2.94,3.25c-2.74,3.03-3.56,3.71-3.56,2.94ZM116.9,125.5c1.29-1.38,2.57-2.5,2.85-2.5s-.56,1.12-1.85,2.5-2.57,2.5-2.85,2.5.56-1.12,1.85-2.5ZM131.9,126.62c0-.21.79-1,1.75-1.75,1.59-1.24,1.62-1.21.38.38-1.31,1.67-2.13,2.2-2.13,1.37ZM71.9,125.62c0-.21.79-1,1.75-1.75,1.59-1.24,1.62-1.21.38.38-1.31,1.67-2.13,2.2-2.13,1.37ZM93.4,124c1-1.1,2.04-2,2.31-2s-.31.9-1.31,2c-1,1.1-2.04,2-2.31,2s.31-.9,1.31-2ZM49.9,122.5c1.29-1.38,2.57-2.5,2.85-2.5s-.56,1.12-1.85,2.5-2.57,2.5-2.85,2.5.56-1.12,1.85-2.5ZM232.4,123c1-1.1,2.04-2,2.31-2s-.31.9-1.31,2c-1,1.1-2.04,2-2.31,2s.31-.9,1.31-2ZM57.9,123.62c0-.21.79-1,1.75-1.75,1.59-1.24,1.62-1.21.38.38-1.31,1.67-2.13,2.2-2.13,1.37ZM296.9,118.5c1.87-1.93,3.62-3.5,3.89-3.5s-1.03,1.57-2.89,3.5-3.62,3.5-3.89,3.5,1.03-1.57,2.89-3.5ZM252.9,118.5c1.29-1.38,2.57-2.5,2.85-2.5s-.56,1.12-1.85,2.5-2.57,2.5-2.85,2.5.56-1.12,1.85-2.5ZM306.9,116.5c1.29-1.38,2.57-2.5,2.85-2.5s-.56,1.12-1.85,2.5-2.57,2.5-2.85,2.5.56-1.12,1.85-2.5ZM45.9,110.62c0-.21.79-1,1.75-1.75,1.59-1.24,1.62-1.21.38.38-1.31,1.67-2.13,2.2-2.13,1.37ZM52.9,103.5c1.87-1.93,3.62-3.5,3.89-3.5s-1.03,1.57-2.89,3.5-3.62,3.5-3.89,3.5,1.03-1.57,2.89-3.5ZM43.9,104.62c0-.21.79-1,1.75-1.75,1.59-1.24,1.62-1.21.38.38-1.31,1.67-2.13,2.2-2.13,1.37ZM73.4,99c2.71-2.75,5.15-5,5.42-5s-1.72,2.25-4.42,5-5.15,5-5.42,5,1.72-2.25,4.42-5ZM59.4,97c1-1.1,2.04-2,2.31-2s-.31.9-1.31,2c-1,1.1-2.04,2-2.31,2s.31-.9,1.31-2ZM51.9,96.62c0-.21.79-1,1.75-1.75,1.59-1.24,1.62-1.21.38.38-1.31,1.67-2.13,2.2-2.13,1.37ZM328.9,94.69c0-.17,1.46-1.63,3.25-3.25l3.25-2.94-2.94,3.25c-2.74,3.03-3.56,3.71-3.56,2.94ZM15.4,90c1-1.1,2.04-2,2.31-2s-.31.9-1.31,2c-1,1.1-2.04,2-2.31,2s.31-.9,1.31-2ZM50.6,89.96c-9.24-.4-17.08-1-17.42-1.34-.34-.34.55-.62,1.98-.62,2.2,0,2.65-.5,2.92-3.24.23-2.39,1.04-3.59,3.06-4.55,1.51-.72,2.75-1.93,2.75-2.68s1.12-2.71,2.5-4.34c1.38-1.64,2.5-4.25,2.51-5.83.02-5.11,4.46-12.98,9.03-16,5.81-3.84,14.86-4.47,20.81-1.43,4.09,2.09,10.15,9.08,10.15,11.71,0,.73,1.69,2.19,3.75,3.24,2.06,1.05,4.61,2.86,5.66,4.02,1.23,1.36,3.12,2.11,5.35,2.11,1.89,0,4.74.93,6.34,2.06,1.59,1.13,3.35,1.78,3.9,1.44.55-.34,1.01.06,1.01.9,0,.95-1.6,1.94-4.25,2.64-2.34.61-5.82,2.36-7.75,3.88s-5.17,3.08-7.22,3.46c-2.05.38-5.04,1.8-6.64,3.16-3.3,2.77-5.29,2.85-38.43,1.42ZM331.9,75.5c7.96-7.97,14.7-14.5,14.97-14.5s-6.01,6.53-13.97,14.5-14.7,14.5-14.97,14.5,6.01-6.53,13.97-14.5ZM280.15,84.26c-3.48-.24-5.25-.81-5.25-1.68,0-.72-.87-2.42-1.94-3.78-1.89-2.4-1.89-2.55-.12-5.46,1.93-3.17,7.42-6.34,10.99-6.34,5.25,0,13.07,5.75,13.07,9.62,0,.74-1.46,1.97-3.25,2.73-1.79.76-4.11,2.34-5.16,3.51-1.05,1.18-2.17,2.05-2.5,1.95-.33-.1-2.96-.35-5.84-.55ZM215.9,80.92c-1.93-1.65-4.82-3.34-6.43-3.76-3.82-.99-4.09-2.24-.96-4.53,5.94-4.33,14.99-2.83,18.59,3.09,1.59,2.62,1.57,2.66-2.83,5.45-2.44,1.55-4.53,2.79-4.65,2.77-.12-.02-1.79-1.39-3.72-3.03h0ZM315.9,82.62c0-.21.79-1,1.75-1.75,1.59-1.24,1.62-1.21.38.38-1.31,1.67-2.13,2.2-2.13,1.37ZM168.41,79.04c-.87-2.74-6.11-6.95-12.07-9.69-3.67-1.69-5.51-3.28-6.72-5.8-3.57-7.48-13.94-11.27-22.22-8.11-3.98,1.52-11.5,8.5-11.5,10.67,0,.42-.45,1.94-1.01,3.4l-1.01,2.64-3.36-2.08c-1.85-1.14-4.7-2.08-6.34-2.08-2.56,0-6.29-2.49-6.29-4.2,0-.3,1.75-.82,3.89-1.17,3.47-.56,3.96-.99,4.54-4.09.71-3.76,4.93-7.55,8.42-7.55,1.74,0,1.96-.47,1.5-3.3-2-12.35,13.8-19.67,22.35-10.35,2.69,2.93,3.31,4.43,3.31,7.96v4.35h4.37c8.3,0,15.63,6.84,15.63,14.59,0,3.2.3,3.84,1.58,3.35.87-.33,2.66-.61,3.97-.61,1.64,0,2.88-.93,3.94-2.98,1.66-3.2,6.1-6.02,9.51-6.02,5.34,0,10.81,5.5,11.13,11.2.08,1.48.35,1.05.75-1.2.5-2.81,1.12-3.56,3.17-3.8,4.9-.57,9.76,6.48,7.18,10.42-.4.62-2.31,1.45-4.23,1.85s-4.99,1.58-6.81,2.63c-2.64,1.52-5.3,1.9-13.18,1.9-8.92,0-9.94-.19-10.5-1.96ZM310.9,80.62c0-.21.79-1,1.75-1.75,1.59-1.24,1.62-1.21.38.38-1.31,1.67-2.13,2.2-2.13,1.37ZM230.9,77.9c0-.67-1.24-2.83-2.75-4.81-1.99-2.6-2.79-4.89-2.92-8.29-.17-4.6.72-6.31,3.62-6.97.8-.18,2.37-1.64,3.5-3.24,3.21-4.56,6.78-6.71,11.27-6.77,7.5-.1,13.28,5.38,13.28,12.61v3.62l-2.95-1.53c-4.16-2.15-10.89-1.92-14.87.5-3.65,2.23-7.69,9.91-6.87,13.07.27,1.04.09,2.15-.41,2.46s-.91.01-.91-.65ZM30.9,74.5c1.87-1.93,3.62-3.5,3.89-3.5s-1.03,1.57-2.89,3.5-3.62,3.5-3.89,3.5,1.03-1.57,2.89-3.5ZM319.9,71.5c2.99-3.03,5.66-5.5,5.93-5.5s-1.94,2.47-4.93,5.5c-2.99,3.03-5.66,5.5-5.93,5.5s1.94-2.47,4.93-5.5ZM23.4,74c1-1.1,2.04-2,2.31-2s-.31.9-1.31,2c-1,1.1-2.04,2-2.31,2s.31-.9,1.31-2ZM299.35,73.91c-.87-1.41,1.05-3.34,2.47-2.47,1.59.98,1.33,3.55-.35,3.55-.79,0-1.74-.49-2.11-1.09ZM263.91,72.2c-4.05-1.98-5.07-4.69-2.06-5.48,1.13-.29,2.3-.12,2.61.38.31.51,1.53.24,2.72-.59,2.26-1.59,7.26-2.05,8.06-.75.52.84-5.94,8.27-7.12,8.19-.41-.03-2.31-.82-4.22-1.75h0ZM30.9,66.5c1.29-1.38,2.57-2.5,2.85-2.5s-.56,1.12-1.85,2.5-2.57,2.5-2.85,2.5.56-1.12,1.85-2.5ZM36.9,68.69c0-.17,1.46-1.63,3.25-3.25l3.25-2.94-2.94,3.25c-2.74,3.03-3.56,3.71-3.56,2.94ZM211.4,63c2.71-2.75,5.15-5,5.42-5s-1.72,2.25-4.42,5-5.15,5-5.42,5,1.72-2.25,4.42-5ZM294.4,61c2.71-2.75,5.15-5,5.42-5s-1.72,2.25-4.42,5-5.15,5-5.42,5,1.72-2.25,4.42-5ZM308.4,63c1-1.1,2.04-2,2.31-2s-.31.9-1.31,2c-1,1.1-2.04,2-2.31,2s.31-.9,1.31-2ZM281.4,42c12.09-12.1,22.21-22,22.48-22s-9.39,9.9-21.48,22-22.21,22-22.48,22,9.39-9.9,21.48-22ZM298.9,63.62c0-.21.79-1,1.75-1.75,1.59-1.24,1.62-1.21.38.38-1.31,1.67-2.13,2.2-2.13,1.37ZM283.9,62.69c0-.17,1.46-1.63,3.25-3.25l3.25-2.94-2.94,3.25c-2.74,3.03-3.56,3.71-3.56,2.94ZM45.4,60c1-1.1,2.04-2,2.31-2s-.31.9-1.31,2c-1,1.1-2.04,2-2.31,2s.31-.9,1.31-2ZM171.4,55c3.82-3.85,7.17-7,7.45-7s-2.63,3.15-6.45,7-7.17,7-7.45,7,2.63-3.15,6.45-7ZM100.4,56c2.71-2.75,5.15-5,5.42-5s-1.72,2.25-4.42,5-5.15,5-5.42,5,1.72-2.25,4.42-5ZM215.4,43c9.89-9.9,18.2-18,18.48-18s-7.59,8.1-17.48,18-18.2,18-18.48,18,7.59-8.1,17.48-18ZM279.88,50.75c5.77-5.91,10.6-10.75,10.75-10.75.72,0-.5,1.28-10.48,11.02l-10.75,10.48,10.48-10.75ZM282.9,56.5c1.29-1.38,2.57-2.5,2.85-2.5s-.56,1.12-1.85,2.5-2.57,2.5-2.85,2.5.56-1.12,1.85-2.5ZM91.9,56.62c0-.21.79-1,1.75-1.75,1.59-1.24,1.62-1.21.38.38-1.31,1.67-2.13,2.2-2.13,1.37ZM201.9,40.5c8.51-8.53,15.7-15.5,15.98-15.5s-6.46,6.97-14.98,15.5-15.7,15.5-15.98,15.5,6.46-6.97,14.98-15.5ZM216.3,54.61c-.91-2.37,1.16-4.44,2.8-2.8.94.94.84,1.57-.46,2.88-1.56,1.56-1.71,1.56-2.34-.07ZM167.4,50c2.71-2.75,5.15-5,5.42-5s-1.72,2.25-4.42,5-5.15,5-5.42,5,1.72-2.25,4.42-5ZM273.9,40.5c7.96-7.97,14.7-14.5,14.97-14.5s-6.01,6.53-13.97,14.5-14.7,14.5-14.97,14.5,6.01-6.53,13.97-14.5ZM296.9,49.5c1.87-1.93,3.62-3.5,3.89-3.5s-1.03,1.57-2.89,3.5-3.62,3.5-3.89,3.5,1.03-1.57,2.89-3.5ZM304.9,50.5c1.29-1.38,2.57-2.5,2.85-2.5s-.56,1.12-1.85,2.5-2.57,2.5-2.85,2.5.56-1.12,1.85-2.5ZM184.9,48.5c1.87-1.93,3.62-3.5,3.89-3.5s-1.03,1.57-2.89,3.5-3.62,3.5-3.89,3.5,1.03-1.57,2.89-3.5ZM200.9,48.5c1.87-1.93,3.62-3.5,3.89-3.5s-1.03,1.57-2.89,3.5-3.62,3.5-3.89,3.5,1.03-1.57,2.89-3.5ZM235.4,39c7.13-7.15,13.2-13,13.47-13s-5.34,5.85-12.47,13c-7.13,7.15-13.2,13-13.47,13s5.34-5.85,12.47-13ZM260.4,47c2.15-2.2,4.13-4,4.41-4s-1.26,1.8-3.41,4c-2.15,2.2-4.13,4-4.41,4s1.26-1.8,3.41-4ZM312.4,50c.34-.55.82-1,1.06-1s.44.45.44,1-.48,1-1.06,1-.78-.45-.44-1ZM155.9,48.69c0-.17,1.46-1.63,3.25-3.25l3.25-2.94-2.94,3.25c-2.74,3.03-3.56,3.71-3.56,2.94ZM106.9,46.12c0-2.94,2.31-4.35,4.49-2.75,2.47,1.81,1.27,4.63-1.96,4.63-1.81,0-2.53-.54-2.53-1.88ZM293.9,45.5c1.29-1.38,2.57-2.5,2.85-2.5s-.56,1.12-1.85,2.5-2.57,2.5-2.85,2.5.56-1.12,1.85-2.5ZM50.9,46.62c0-.21.79-1,1.75-1.75,1.59-1.24,1.62-1.21.38.38-1.31,1.67-2.13,2.2-2.13,1.37ZM182.9,43.5c1.87-1.92,3.62-3.5,3.89-3.5s-1.03,1.58-2.89,3.5c-1.87,1.93-3.62,3.5-3.89,3.5s1.03-1.57,2.89-3.5ZM316.9,38.5c4.65-4.67,8.68-8.5,8.96-8.5s-3.31,3.83-7.96,8.5-8.68,8.5-8.96,8.5,3.31-3.83,7.96-8.5ZM151.9,45.62c0-.21.79-1,1.75-1.75,1.59-1.24,1.62-1.21.38.38-1.31,1.67-2.13,2.2-2.13,1.37ZM64.4,41c2.15-2.2,4.13-4,4.41-4s-1.26,1.8-3.41,4-4.13,4-4.41,4,1.26-1.8,3.41-4ZM307.4,39c3.27-3.3,6.16-6,6.44-6s-2.17,2.7-5.44,6-6.16,6-6.44,6,2.17-2.7,5.44-6ZM79.9,41.5c1.29-1.38,2.57-2.5,2.85-2.5s-.56,1.12-1.85,2.5-2.57,2.5-2.85,2.5.56-1.12,1.85-2.5ZM195.4,22c12.09-12.1,22.21-22,22.48-22s-9.39,9.9-21.48,22c-12.09,12.1-22.21,22-22.48,22s9.39-9.9,21.48-22ZM192.9,40.5c1.87-1.92,3.62-3.5,3.89-3.5s-1.03,1.58-2.89,3.5-3.62,3.5-3.89,3.5,1.03-1.58,2.89-3.5ZM207.4,42c1-1.1,2.04-2,2.31-2s-.31.9-1.31,2c-1,1.1-2.04,2-2.31,2s.31-.9,1.31-2ZM260.9,37.5c3.54-3.58,6.67-6.5,6.94-6.5s-2.4,2.92-5.94,6.5-6.67,6.5-6.94,6.5,2.4-2.92,5.94-6.5ZM56.4,41c1-1.1,2.04-2,2.31-2s-.31.9-1.31,2c-1,1.1-2.04,2-2.31,2s.31-.9,1.31-2ZM149.4,39c2.15-2.2,4.13-4,4.41-4s-1.26,1.8-3.41,4-4.13,4-4.41,4,1.26-1.8,3.41-4ZM265.9,41.72c0-.15,3.49-3.64,7.75-7.75l7.75-7.47-7.47,7.75c-6.94,7.2-8.03,8.21-8.03,7.47ZM299.4,40c1-1.1,2.04-2,2.31-2s-.31.9-1.31,2c-1,1.1-2.04,2-2.31,2s.31-.9,1.31-2ZM294.9,35.5c1.87-1.92,3.62-3.5,3.89-3.5s-1.03,1.58-2.89,3.5-3.62,3.5-3.89,3.5,1.03-1.58,2.89-3.5ZM164.9,32.5c2.99-3.03,5.66-5.5,5.93-5.5s-1.94,2.47-4.93,5.5c-2.99,3.03-5.66,5.5-5.93,5.5s1.94-2.47,4.93-5.5ZM188.9,37.69c0-.17,1.46-1.63,3.25-3.25l3.25-2.94-2.94,3.25c-2.74,3.03-3.56,3.71-3.56,2.94ZM62.9,34.5c1.29-1.38,2.57-2.5,2.85-2.5s-.56,1.12-1.85,2.5-2.57,2.5-2.85,2.5.56-1.12,1.85-2.5ZM200.9,32.5c1.87-1.92,3.62-3.5,3.89-3.5s-1.03,1.58-2.89,3.5-3.62,3.5-3.89,3.5,1.03-1.58,2.89-3.5ZM215.4,34c1-1.1,2.04-2,2.31-2s-.31.9-1.31,2c-1,1.1-2.04,2-2.31,2s.31-.9,1.31-2ZM158.4,30c2.15-2.2,4.13-4,4.41-4s-1.26,1.8-3.41,4-4.13,4-4.41,4,1.26-1.8,3.41-4ZM117.4,31c1-1.1,2.04-2,2.31-2s-.31.9-1.31,2c-1,1.1-2.04,2-2.31,2s.31-.9,1.31-2ZM143.86,28.75c4.14-4.42,5.04-5.21,5.04-4.46,0,.16-2.14,2.3-4.75,4.75l-4.75,4.46,4.46-4.75ZM307.9,31.62c0-.21.79-1,1.75-1.75,1.59-1.24,1.62-1.21.38.38-1.31,1.67-2.13,2.2-2.13,1.37ZM314.9,31.62c0-.21.79-1,1.75-1.75,1.59-1.24,1.62-1.21.38.38-1.31,1.67-2.13,2.2-2.13,1.37ZM221.83,27.76c1.89-2.05,3.65-3.51,3.92-3.25.27.27.3.6.06.74-.23.14-1.99,1.6-3.92,3.25l-3.49,3,3.43-3.73ZM301.4,29c1-1.1,2.04-2,2.31-2s-.31.9-1.31,2c-1,1.1-2.04,2-2.31,2s.31-.9,1.31-2ZM196.9,29.69c0-.17,1.46-1.63,3.25-3.25l3.25-2.94-2.94,3.25c-2.74,3.03-3.56,3.71-3.56,2.94ZM268.9,29.69c0-.17,1.46-1.63,3.25-3.25l3.25-2.94-2.94,3.25c-2.74,3.03-3.56,3.71-3.56,2.94ZM127.9,28.69c0-.17,1.46-1.63,3.25-3.25l3.25-2.94-2.94,3.25c-2.74,3.03-3.56,3.71-3.56,2.94ZM77.9,27.62c0-.21.79-1,1.75-1.75,1.59-1.24,1.62-1.21.38.38-1.31,1.67-2.13,2.2-2.13,1.37ZM207.9,25.5c1.29-1.38,2.57-2.5,2.85-2.5s-.56,1.12-1.85,2.5-2.57,2.5-2.85,2.5.56-1.12,1.85-2.5ZM123.9,24.62c0-.21.79-1,1.75-1.75,1.59-1.24,1.62-1.21.38.38-1.31,1.67-2.13,2.2-2.13,1.37ZM222.4,20c2.15-2.2,4.13-4,4.41-4s-1.26,1.8-3.41,4-4.13,4-4.41,4,1.26-1.8,3.41-4ZM283.9,23.69c0-.17,1.46-1.63,3.25-3.25l3.25-2.94-2.94,3.25c-2.74,3.03-3.56,3.71-3.56,2.94ZM284.9,13.5c5.2-5.23,9.69-9.5,9.96-9.5s-3.76,4.27-8.96,9.5c-5.2,5.22-9.69,9.5-9.96,9.5s3.76-4.28,8.96-9.5ZM204.9,21.69c0-.17,1.46-1.63,3.25-3.25l3.25-2.94-2.94,3.25c-2.74,3.03-3.56,3.71-3.56,2.94Z"/>
    </g>
  </g>
</svg>